<svg viewBox="0 0 2000 1000" xmlns="http://www.w3.org/2000/svg"><mask id="b" x="0" y="0" width="2000" height="1000"><path fill="url(#a)" d="M0 0h2000v1000H0z"/></mask><path fill="#b1cfff" d="M0 0h2000v1000H0z"/><g style="transform-origin:center center" stroke="#ffffff5e" mask="url(#b)"><path fill="#ffffff38" d="M523.25 0H627.9v104.65H523.25z" stroke-width="1.15"/><path fill="none" d="M732.55 0H837.2v104.65H732.55zM837.2 0h104.65v104.65H837.2z" stroke-width="1.15"/><path fill="#ffffff56" d="M1046.5 0h104.65v104.65H1046.5z" stroke-width="1.15"/><path fill="none" d="M1255.8 0h104.65v104.65H1255.8zM1360.45 0h104.65v104.65h-104.65z" stroke-width="1.15"/><path fill="none" d="M1465.1 0h104.65v104.65H1465.1zM1569.75 0h104.65v104.65h-104.65z" stroke-width="1.15"/><path fill="#ffffff30" d="M1674.4 0h104.65v104.65H1674.4z" stroke-width="1.15"/><path fill="none" d="M1883.7 0h104.65v104.65H1883.7zM2093 0h104.65v104.65H2093zM0 104.65h104.65V209.3H0z" stroke-width="1.15"/><path fill="#ffffff1b" d="M104.65 104.65H209.3V209.3H104.65z" stroke-width="1.15"/><path fill="#ffffff49" d="M209.3 104.65h104.65V209.3H209.3z" stroke-width="1.15"/><path fill="none" d="M732.55 104.65H837.2V209.3H732.55z" stroke-width="1.15"/><path fill="#ffffff4b" d="M837.2 104.65h104.65V209.3H837.2z" stroke-width="1.15"/><path fill="none" d="M1465.1 104.65h104.65V209.3H1465.1z" stroke-width="1.15"/><path fill="#ffffff33" d="M1779.05 104.65h104.65V209.3h-104.65z" stroke-width="1.15"/><path fill="none" d="M1883.7 104.65h104.65V209.3H1883.7zM2197.65 104.65h104.65V209.3h-104.65z" stroke-width="1.15"/><path fill="#ffffff40" d="M0 209.3h104.65v104.65H0z" stroke-width="1.15"/><path fill="none" d="M104.65 209.3H209.3v104.65H104.65zM209.3 209.3h104.65v104.65H209.3zM418.6 209.3h104.65v104.65H418.6zM523.25 209.3H627.9v104.65H523.25zM1046.5 209.3h104.65v104.65H1046.5zM1255.8 209.3h104.65v104.65H1255.8z" stroke-width="1.15"/><path fill="#ffffff5a" d="M1360.45 209.3h104.65v104.65h-104.65z" stroke-width="1.15"/><path fill="none" d="M1569.75 209.3h104.65v104.65h-104.65zM1674.4 209.3h104.65v104.65H1674.4z" stroke-width="1.15"/><path fill="none" d="M1779.05 209.3h104.65v104.65h-104.65zM1988.35 209.3H2093v104.65h-104.65zM0 313.95h104.65V418.6H0zM104.65 313.95H209.3V418.6H104.65zM209.3 313.95h104.65V418.6H209.3z" stroke-width="1.15"/><path fill="#ffffff0a" d="M313.95 313.95H418.6V418.6H313.95z" stroke-width="1.15"/><path fill="#ffffff59" d="M627.9 313.95h104.65V418.6H627.9z" stroke-width="1.15"/><path fill="none" d="M732.55 313.95H837.2V418.6H732.55zM1046.5 313.95h104.65V418.6H1046.5zM1255.8 313.95h104.65V418.6H1255.8zM1674.4 313.95h104.65V418.6H1674.4z" stroke-width="1.15"/><path fill="none" d="M1779.05 313.95h104.65V418.6h-104.65z" stroke-width="1.15"/><path fill="#ffffff00" d="M1883.7 313.95h104.65V418.6H1883.7z" stroke-width="1.15"/><path fill="none" d="M2093 313.95h104.65V418.6H2093zM104.65 418.6H209.3v104.65H104.65z" stroke-width="1.15"/><path fill="#ffffff1c" d="M209.3 418.6h104.65v104.65H209.3z" stroke-width="1.15"/><path fill="none" d="M627.9 418.6h104.65v104.65H627.9z" stroke-width="1.15"/><path fill="#ffffff43" d="M732.55 418.6H837.2v104.65H732.55z" stroke-width="1.15"/><path fill="none" d="M837.2 418.6h104.65v104.65H837.2zM1151.15 418.6h104.65v104.65h-104.65zM1360.45 418.6h104.65v104.65h-104.65z" stroke-width="1.15"/><path fill="#ffffff38" d="M1569.75 418.6h104.65v104.65h-104.65z" stroke-width="1.15"/><path fill="#ffffff2a" d="M1674.4 418.6h104.65v104.65H1674.4z" stroke-width="1.15"/><path fill="#ffffff59" d="M2093 418.6h104.65v104.65H2093z" stroke-width="1.15"/><path fill="none" d="M2197.65 418.6h104.65v104.65h-104.65zM0 523.25h104.65V627.9H0z" stroke-width="1.15"/><path fill="#ffffff14" d="M104.65 523.25H209.3V627.9H104.65zM627.9 523.25h104.65V627.9H627.9z" stroke-width="1.15"/><path fill="none" d="M732.55 523.25H837.2V627.9H732.55zM837.2 523.25h104.65V627.9H837.2zM941.85 523.25h104.65V627.9H941.85z" stroke-width="1.15"/><path fill="#ffffff17" d="M1046.5 523.25h104.65V627.9H1046.5z" stroke-width="1.15"/><path fill="none" d="M1255.8 523.25h104.65V627.9H1255.8z" stroke-width="1.15"/><path fill="#ffffff29" d="M1465.1 523.25h104.65V627.9H1465.1z" stroke-width="1.15"/><path fill="none" d="M1988.35 523.25H2093V627.9h-104.65zM2093 523.25h104.65V627.9H2093zM0 627.9h104.65v104.65H0zM104.65 627.9H209.3v104.65H104.65zM209.3 627.9h104.65v104.65H209.3z" stroke-width="1.15"/><path fill="#ffffff52" d="M313.95 627.9H418.6v104.65H313.95z" stroke-width="1.15"/><path fill="none" d="M523.25 627.9H627.9v104.65H523.25zM627.9 627.9h104.65v104.65H627.9zM837.2 627.9h104.65v104.65H837.2zM941.85 627.9h104.65v104.65H941.85zM1569.75 627.9h104.65v104.65h-104.65zM1779.05 627.9h104.65v104.65h-104.65zM1883.7 627.9h104.65v104.65H1883.7z" stroke-width="1.15"/><path fill="none" d="M1988.35 627.9H2093v104.65h-104.65zM0 732.55h104.65V837.2H0zM104.65 732.55H209.3V837.2H104.65z" stroke-width="1.15"/><path fill="#ffffff20" d="M313.95 732.55H418.6V837.2H313.95z" stroke-width="1.15"/><path fill="none" d="M418.6 732.55h104.65V837.2H418.6zM523.25 732.55H627.9V837.2H523.25zM627.9 732.55h104.65V837.2H627.9zM941.85 732.55h104.65V837.2H941.85zM1046.5 732.55h104.65V837.2H1046.5zM1255.8 732.55h104.65V837.2H1255.8z" stroke-width="1.15"/><path fill="#ffffff45" d="M1360.45 732.55h104.65V837.2h-104.65z" stroke-width="1.15"/><path fill="#ffffff58" d="M1465.1 732.55h104.65V837.2H1465.1z" stroke-width="1.15"/><path fill="none" d="M1569.75 732.55h104.65V837.2h-104.65z" stroke-width="1.15"/><path fill="#ffffff32" d="M1674.4 732.55h104.65V837.2H1674.4z" stroke-width="1.15"/><path fill="none" d="M1779.05 732.55h104.65V837.2h-104.65zM1883.7 732.55h104.65V837.2H1883.7z" stroke-width="1.15"/><path fill="none" d="M1988.35 732.55H2093V837.2h-104.65zM0 837.2h104.65v104.65H0zM104.65 837.2H209.3v104.65H104.65zM523.25 837.2H627.9v104.65H523.25zM627.9 837.2h104.65v104.65H627.9zM941.85 837.2h104.65v104.65H941.85zM1046.5 837.2h104.65v104.65H1046.5zM1255.8 837.2h104.65v104.65H1255.8zM1465.1 837.2h104.65v104.65H1465.1z" stroke-width="1.15"/><path fill="#ffffff09" d="M1674.4 837.2h104.65v104.65H1674.4z" stroke-width="1.15"/><path fill="none" d="M1779.05 837.2h104.65v104.65h-104.65z" stroke-width="1.15"/><path fill="#ffffff25" d="M1988.35 837.2H2093v104.65h-104.65z" stroke-width="1.15"/><path fill="none" d="M2197.65 837.2h104.65v104.65h-104.65zM0 941.85h104.65v104.65H0zM104.65 941.85H209.3v104.65H104.65z" stroke-width="1.15"/><path fill="#ffffff09" d="M313.95 941.85H418.6v104.65H313.95z" stroke-width="1.15"/><path fill="none" d="M418.6 941.85h104.65v104.65H418.6zM837.2 941.85h104.65v104.65H837.2zM941.85 941.85h104.65v104.65H941.85zM1151.15 941.85h104.65v104.65h-104.65zM1360.45 941.85h104.65v104.65h-104.65z" stroke-width="1.15"/><path fill="none" d="M1465.1 941.85h104.65v104.65H1465.1z" stroke-width="1.15"/><path fill="#ffffff54" d="M1569.75 941.85h104.65v104.65h-104.65z" stroke-width="1.15"/><path fill="#ffffff14" d="M1779.05 941.85h104.65v104.65h-104.65z" stroke-width="1.15"/><path fill="none" d="M1883.7 941.85h104.65v104.65H1883.7zM2093 941.85h104.65v104.65H2093zM0 1046.5h104.65v104.65H0zM104.65 1046.5H209.3v104.65H104.65zM209.3 1046.5h104.65v104.65H209.3zM523.25 1046.5H627.9v104.65H523.25zM837.2 1046.5h104.65v104.65H837.2z" stroke-width="1.15"/><path fill="#ffffff17" d="M1046.5 1046.5h104.65v104.65H1046.5z" stroke-width="1.15"/><path fill="none" d="M1151.15 1046.5h104.65v104.65h-104.65z" stroke-width="1.15"/><path fill="none" d="M1255.8 1046.5h104.65v104.65H1255.8zM1465.1 1046.5h104.65v104.65H1465.1zM1569.75 1046.5h104.65v104.65h-104.65zM1779.05 1046.5h104.65v104.65h-104.65z" stroke-width="1.15"/><path fill="#ffffff53" d="M1988.35 1046.5H2093v104.65h-104.65z" stroke-width="1.15"/><path fill="none" d="M2093 1046.5h104.65v104.65H2093z" stroke-width="1.15"/></g><defs><radialGradient id="a"><stop offset="50%" stop-color="#fff" stop-opacity="0"/><stop offset="1" stop-color="#fff" stop-opacity=".5"/></radialGradient></defs></svg>