<svg viewBox="0 0 2000 1125" xmlns="http://www.w3.org/2000/svg"><mask id="b" x="0" y="0" width="2000" height="1125"><path fill="url(#a)" d="M0 0h2000v1125H0z"/></mask><path fill="#B1CFFF" d="M0 0h2000v1125H0z"/><g style="transform-origin:center center" clip-rule="evenodd" stroke="#ffffff5e" mask="url(#b)"><g fill="none"><path d="M52.325 30.502V90.85l52.322 30.177V60.679L52.325 30.502ZM104.647 121.027l52.328-30.177V30.502l-52.328 30.177v60.348Z" stroke-width=".34883"/><path d="M52.325 30.502 104.647.33l52.328 30.172-52.328 30.177-52.322-30.177Z" stroke-width=".34883"/></g><g fill-rule="evenodd"><path d="M575.575 30.502V90.85l52.322 30.177V60.679l-52.322-30.177Z" fill="#ffffff48" stroke-width=".34883"/><path d="m627.897 121.027 52.328-30.177V30.502l-52.328 30.177v60.348Z" fill="#ffffff33" stroke-width=".34883"/><path d="M575.575 30.502 627.897.33l52.328 30.172-52.328 30.177-52.322-30.177Z" fill="#ffffff19" stroke-width=".34883"/></g><g fill="none"><path d="M680.225 30.502V90.85l52.322 30.177V60.679l-52.322-30.177ZM732.547 121.027l52.328-30.177V30.502l-52.328 30.177v60.348Z" stroke-width=".34883"/><path d="M680.225 30.502 732.547.33l52.328 30.172-52.328 30.177-52.322-30.177Z" stroke-width=".34883"/></g><g fill="none"><path d="M1622.075 30.502V90.85l52.322 30.177V60.679l-52.322-30.177ZM1674.397 121.027l52.328-30.177V30.502l-52.328 30.177v60.348Z" stroke-width=".34883"/><path d="M1622.075 30.502 1674.397.33l52.328 30.172-52.328 30.177-52.322-30.177Z" stroke-width=".34883"/></g><g fill="none"><path d="M1726.725 30.502V90.85l52.322 30.177V60.679l-52.322-30.177ZM1779.047 121.027l52.328-30.177V30.502l-52.328 30.177v60.348Z" stroke-width=".34883"/><path d="M1726.725 30.502 1779.047.33l52.328 30.172-52.328 30.177-52.322-30.177Z" stroke-width=".34883"/></g><g fill="none"><path d="M1831.375 30.502V90.85l52.322 30.177V60.679l-52.322-30.177Z" stroke-width=".34883"/><path d="m1883.697 121.027 52.328-30.177V30.502l-52.328 30.177v60.348Z" stroke-width=".34883"/><path d="M1831.375 30.502 1883.697.33l52.328 30.172-52.328 30.177-52.322-30.177Z" stroke-width=".34883"/></g><g fill="none"><path d="M1936.025 30.502V90.85l52.322 30.177V60.679l-52.322-30.177Z" stroke-width=".34883"/><path d="m1988.347 121.027 52.328-30.177V30.502l-52.328 30.177v60.348Z" stroke-width=".34883"/><path d="M1936.025 30.502 1988.347.33l52.328 30.172-52.328 30.177-52.322-30.177Z" stroke-width=".34883"/></g><g fill="none"><path d="M2040.675 30.502V90.85l52.322 30.177V60.679l-52.322-30.177ZM2092.997 121.027l52.328-30.177V30.502l-52.328 30.177v60.348Z" stroke-width=".34883"/><path d="M2040.675 30.502 2092.997.33l52.328 30.172-52.328 30.177-52.322-30.177Z" stroke-width=".34883"/></g><g fill="none"><path d="M2145.325 30.502V90.85l52.322 30.177V60.679l-52.322-30.177ZM2197.647 121.027l52.328-30.177V30.502l-52.328 30.177v60.348Z" stroke-width=".34883"/><path d="M2145.325 30.502 2197.647.33l52.328 30.172-52.328 30.177-52.322-30.177Z" stroke-width=".34883"/></g><g fill="none"><path d="M2249.975 30.502V90.85l52.322 30.177V60.679l-52.322-30.177ZM2302.297 121.027l52.328-30.177V30.502l-52.328 30.177v60.348Z" stroke-width=".34883"/><path d="M2249.975 30.502 2302.297.33l52.328 30.172-52.328 30.177-52.322-30.177Z" stroke-width=".34883"/></g><g fill-rule="evenodd"><path d="M0 121.199v60.348l52.322 30.176v-60.348L0 121.2Z" fill="#ffffff32" stroke-width=".34883"/><path d="m52.322 211.723 52.328-30.176v-60.348l-52.328 30.176v60.348Z" fill="#ffffff23" stroke-width=".34883"/><path d="m0 121.199 52.322-30.172L104.65 121.2l-52.328 30.176L0 121.2Z" fill="#ffffff11" stroke-width=".34883"/></g><g fill="none"><path d="M209.3 121.199v60.348l52.322 30.176v-60.348L209.3 121.2ZM261.622 211.723l52.328-30.176v-60.348l-52.328 30.176v60.348Z" stroke-width=".34883"/><path d="m209.3 121.199 52.322-30.172L313.95 121.2l-52.328 30.176L209.3 121.2Z" stroke-width=".34883"/></g><g fill="none"><path d="M523.25 121.199v60.348l52.322 30.176v-60.348L523.25 121.2ZM575.572 211.723l52.328-30.176v-60.348l-52.328 30.176v60.348Z" stroke-width=".34883"/><path d="m523.25 121.199 52.322-30.172L627.9 121.2l-52.328 30.176L523.25 121.2Z" stroke-width=".34883"/></g><g fill="none"><path d="M627.9 121.199v60.348l52.322 30.176v-60.348L627.9 121.2ZM680.222 211.723l52.328-30.176v-60.348l-52.328 30.176v60.348Z" stroke-width=".34883"/><path d="m627.9 121.199 52.322-30.172L732.55 121.2l-52.328 30.176L627.9 121.2Z" stroke-width=".34883"/></g><g fill="none"><path d="M732.55 121.199v60.348l52.322 30.176v-60.348L732.55 121.2ZM784.872 211.723l52.328-30.176v-60.348l-52.328 30.176v60.348Z" stroke-width=".34883"/><path d="m732.55 121.199 52.322-30.172L837.2 121.2l-52.328 30.176L732.55 121.2Z" stroke-width=".34883"/></g><g fill="none"><path d="M941.85 121.199v60.348l52.322 30.176v-60.348L941.85 121.2ZM994.172 211.723l52.328-30.176v-60.348l-52.328 30.176v60.348Z" stroke-width=".34883"/><path d="m941.85 121.199 52.322-30.172L1046.5 121.2l-52.328 30.176L941.85 121.2Z" stroke-width=".34883"/></g><g fill-rule="evenodd"><path d="M1046.5 121.199v60.348l52.322 30.176v-60.348L1046.5 121.2Z" fill="#ffffff44" stroke-width=".34883"/><path d="m1098.822 211.723 52.328-30.176v-60.348l-52.328 30.176v60.348Z" fill="#ffffff30" stroke-width=".34883"/><path d="m1046.5 121.199 52.322-30.172 52.328 30.172-52.328 30.176L1046.5 121.2Z" fill="#ffffff18" stroke-width=".34883"/></g><g fill="none"><path d="M1151.15 121.199v60.348l52.322 30.176v-60.348L1151.15 121.2Z" stroke-width=".34883"/><path d="m1203.472 211.723 52.328-30.176v-60.348l-52.328 30.176v60.348Z" stroke-width=".34883"/><path d="m1151.15 121.199 52.322-30.172L1255.8 121.2l-52.328 30.176-52.322-30.176Z" stroke-width=".34883"/></g><g fill="none"><path d="M1465.1 121.199v60.348l52.322 30.176v-60.348L1465.1 121.2ZM1517.422 211.723l52.328-30.176v-60.348l-52.328 30.176v60.348Z" stroke-width=".34883"/><path d="m1465.1 121.199 52.322-30.172 52.328 30.172-52.328 30.176L1465.1 121.2Z" stroke-width=".34883"/></g><g fill="none"><path d="M1674.4 121.199v60.348l52.322 30.176v-60.348L1674.4 121.2Z" stroke-width=".34883"/><path d="m1726.722 211.723 52.328-30.176v-60.348l-52.328 30.176v60.348Z" stroke-width=".34883"/><path d="m1674.4 121.199 52.322-30.172 52.328 30.172-52.328 30.176L1674.4 121.2Z" stroke-width=".34883"/></g><g fill="none"><path d="M1779.05 121.199v60.348l52.322 30.176v-60.348L1779.05 121.2ZM1831.372 211.723l52.328-30.176v-60.348l-52.328 30.176v60.348Z" stroke-width=".34883"/><path d="m1779.05 121.199 52.322-30.172L1883.7 121.2l-52.328 30.176-52.322-30.176Z" stroke-width=".34883"/></g><g fill="none"><path d="M1883.7 121.199v60.348l52.322 30.176v-60.348L1883.7 121.2ZM1936.022 211.723l52.328-30.176v-60.348l-52.328 30.176v60.348Z" stroke-width=".34883"/><path d="m1883.7 121.199 52.322-30.172 52.328 30.172-52.328 30.176L1883.7 121.2Z" stroke-width=".34883"/></g><g fill="none"><path d="M1988.35 121.199v60.348l52.322 30.176v-60.348L1988.35 121.2ZM2040.672 211.723 2093 181.547v-60.348l-52.328 30.176v60.348Z" stroke-width=".34883"/><path d="m1988.35 121.199 52.322-30.172L2093 121.2l-52.328 30.176-52.322-30.176Z" stroke-width=".34883"/></g><g fill="none"><path d="M52.325 211.895v60.348l52.322 30.177v-60.348l-52.322-30.177ZM104.647 302.42l52.328-30.177v-60.348l-52.328 30.177v60.348Z" stroke-width=".34883"/><path d="m52.325 211.895 52.322-30.171 52.328 30.171-52.328 30.177-52.322-30.177Z" stroke-width=".34883"/></g><g fill="none"><path d="M156.975 211.895v60.348l52.322 30.177v-60.348l-52.322-30.177ZM209.297 302.42l52.328-30.177v-60.348l-52.328 30.177v60.348Z" stroke-width=".34883"/><path d="m156.975 211.895 52.322-30.171 52.328 30.171-52.328 30.177-52.322-30.177Z" stroke-width=".34883"/></g><g fill="none"><path d="M261.625 211.895v60.348l52.322 30.177v-60.348l-52.322-30.177ZM313.947 302.42l52.328-30.177v-60.348l-52.328 30.177v60.348Z" stroke-width=".34883"/><path d="m261.625 211.895 52.322-30.171 52.328 30.171-52.328 30.177-52.322-30.177Z" stroke-width=".34883"/></g><g fill="none"><path d="M680.225 211.895v60.348l52.322 30.177v-60.348l-52.322-30.177ZM732.547 302.42l52.328-30.177v-60.348l-52.328 30.177v60.348Z" stroke-width=".34883"/><path d="m680.225 211.895 52.322-30.171 52.328 30.171-52.328 30.177-52.322-30.177Z" stroke-width=".34883"/></g><g fill-rule="evenodd"><path d="M784.875 211.895v60.348l52.322 30.177v-60.348l-52.322-30.177Z" fill="#ffffff23" stroke-width=".34883"/><path d="m837.197 302.42 52.328-30.177v-60.348l-52.328 30.177v60.348Z" fill="#ffffff18" stroke-width=".34883"/><path d="m784.875 211.895 52.322-30.171 52.328 30.171-52.328 30.177-52.322-30.177Z" fill="#ffffff0c" stroke-width=".34883"/></g><g fill="none"><path d="M889.525 211.895v60.348l52.322 30.177v-60.348l-52.322-30.177ZM941.847 302.42l52.328-30.177v-60.348l-52.328 30.177v60.348Z" stroke-width=".34883"/><path d="m889.525 211.895 52.322-30.171 52.328 30.171-52.328 30.177-52.322-30.177Z" stroke-width=".34883"/></g><g fill-rule="evenodd"><path d="M1412.775 211.895v60.348l52.322 30.177v-60.348l-52.322-30.177Z" fill="#ffffff48" stroke-width=".34883"/><path d="m1465.097 302.42 52.328-30.177v-60.348l-52.328 30.177v60.348Z" fill="#ffffff32" stroke-width=".34883"/><path d="m1412.775 211.895 52.322-30.171 52.328 30.171-52.328 30.177-52.322-30.177Z" fill="#ffffff19" stroke-width=".34883"/></g><g fill="none"><path d="M1936.025 211.895v60.348l52.322 30.177v-60.348l-52.322-30.177Z" stroke-width=".34883"/><path d="m1988.347 302.42 52.328-30.177v-60.348l-52.328 30.177v60.348Z" stroke-width=".34883"/><path d="m1936.025 211.895 52.322-30.171 52.328 30.171-52.328 30.177-52.322-30.177Z" stroke-width=".34883"/></g><g fill-rule="evenodd"><path d="M2040.675 211.895v60.348l52.322 30.177v-60.348l-52.322-30.177Z" fill="#ffffff39" stroke-width=".34883"/><path d="m2092.997 302.42 52.328-30.177v-60.348l-52.328 30.177v60.348Z" fill="#ffffff28" stroke-width=".34883"/><path d="m2040.675 211.895 52.322-30.171 52.328 30.171-52.328 30.177-52.322-30.177Z" fill="#ffffff14" stroke-width=".34883"/></g><g fill="none"><path d="M2145.325 211.895v60.348l52.322 30.177v-60.348l-52.322-30.177ZM2197.647 302.42l52.328-30.177v-60.348l-52.328 30.177v60.348Z" stroke-width=".34883"/><path d="m2145.325 211.895 52.322-30.171 52.328 30.171-52.328 30.177-52.322-30.177Z" stroke-width=".34883"/></g><g fill="none"><path d="M2249.975 211.895v60.348l52.322 30.177v-60.348l-52.322-30.177ZM2302.297 302.42l52.328-30.177v-60.348l-52.328 30.177v60.348Z" stroke-width=".34883"/><path d="m2249.975 211.895 52.322-30.171 52.328 30.171-52.328 30.177-52.322-30.177Z" stroke-width=".34883"/></g><g fill="none"><path d="M0 302.592v60.348l52.322 30.177v-60.348L0 302.592ZM52.322 393.117l52.328-30.177v-60.348l-52.328 30.177v60.348Z" stroke-width=".34883"/><path d="m0 302.592 52.322-30.172 52.328 30.172-52.328 30.177L0 302.592Z" stroke-width=".34883"/></g><g fill="none"><path d="M313.95 302.592v60.348l52.322 30.177v-60.348l-52.322-30.177ZM366.272 393.117 418.6 362.94v-60.348l-52.328 30.177v60.348Z" stroke-width=".34883"/><path d="m313.95 302.592 52.322-30.172 52.328 30.172-52.328 30.177-52.322-30.177Z" stroke-width=".34883"/></g><g fill="none"><path d="M418.6 302.592v60.348l52.322 30.177v-60.348L418.6 302.592ZM470.922 393.117l52.328-30.177v-60.348l-52.328 30.177v60.348Z" stroke-width=".34883"/><path d="m418.6 302.592 52.322-30.172 52.328 30.172-52.328 30.177-52.322-30.177Z" stroke-width=".34883"/></g><g fill-rule="evenodd"><path d="M627.9 302.592v60.348l52.322 30.177v-60.348L627.9 302.592Z" fill="#ffffff55" stroke-width=".34883"/><path d="m680.222 393.117 52.328-30.177v-60.348l-52.328 30.177v60.348Z" fill="#ffffff3c" stroke-width=".34883"/><path d="m627.9 302.592 52.322-30.172 52.328 30.172-52.328 30.177-52.322-30.177Z" fill="#ffffff1e" stroke-width=".34883"/></g><g fill="none"><path d="M837.2 302.592v60.348l52.322 30.177v-60.348L837.2 302.592ZM889.522 393.117l52.328-30.177v-60.348l-52.328 30.177v60.348Z" stroke-width=".34883"/><path d="m837.2 302.592 52.322-30.172 52.328 30.172-52.328 30.177-52.322-30.177Z" stroke-width=".34883"/></g><g fill-rule="evenodd"><path d="M941.85 302.592v60.348l52.322 30.177v-60.348l-52.322-30.177Z" fill="#ffffff27" stroke-width=".34883"/><path d="m994.172 393.117 52.328-30.177v-60.348l-52.328 30.177v60.348Z" fill="#ffffff1b" stroke-width=".34883"/><path d="m941.85 302.592 52.322-30.172 52.328 30.172-52.328 30.177-52.322-30.177Z" fill="#ffffff0e" stroke-width=".34883"/></g><g fill="none"><path d="M1046.5 302.592v60.348l52.322 30.177v-60.348l-52.322-30.177Z" stroke-width=".34883"/><path d="m1098.822 393.117 52.328-30.177v-60.348l-52.328 30.177v60.348Z" stroke-width=".34883"/><path d="m1046.5 302.592 52.322-30.172 52.328 30.172-52.328 30.177-52.322-30.177Z" stroke-width=".34883"/></g><g fill-rule="evenodd"><path d="M1151.15 302.592v60.348l52.322 30.177v-60.348l-52.322-30.177Z" fill="#ffffff2e" stroke-width=".34883"/><path d="m1203.472 393.117 52.328-30.177v-60.348l-52.328 30.177v60.348Z" fill="#ffffff20" stroke-width=".34883"/><path d="m1151.15 302.592 52.322-30.172 52.328 30.172-52.328 30.177-52.322-30.177Z" fill="#ffffff10" stroke-width=".34883"/></g><g fill="none"><path d="M1255.8 302.592v60.348l52.322 30.177v-60.348l-52.322-30.177ZM1308.122 393.117l52.328-30.177v-60.348l-52.328 30.177v60.348Z" stroke-width=".34883"/><path d="m1255.8 302.592 52.322-30.172 52.328 30.172-52.328 30.177-52.322-30.177Z" stroke-width=".34883"/></g><g fill="none"><path d="M1360.45 302.592v60.348l52.322 30.177v-60.348l-52.322-30.177ZM1412.772 393.117l52.328-30.177v-60.348l-52.328 30.177v60.348Z" stroke-width=".34883"/><path d="m1360.45 302.592 52.322-30.172 52.328 30.172-52.328 30.177-52.322-30.177Z" stroke-width=".34883"/></g><g fill="none"><path d="M1465.1 302.592v60.348l52.322 30.177v-60.348l-52.322-30.177ZM1517.422 393.117l52.328-30.177v-60.348l-52.328 30.177v60.348Z" stroke-width=".34883"/><path d="m1465.1 302.592 52.322-30.172 52.328 30.172-52.328 30.177-52.322-30.177Z" stroke-width=".34883"/></g><g fill="none"><path d="M1988.35 302.592v60.348l52.322 30.177v-60.348l-52.322-30.177ZM2040.672 393.117 2093 362.94v-60.348l-52.328 30.177v60.348Z" stroke-width=".34883"/><path d="m1988.35 302.592 52.322-30.172L2093 302.592l-52.328 30.177-52.322-30.177Z" stroke-width=".34883"/></g><g fill-rule="evenodd"><path d="M2093 302.592v60.348l52.322 30.177v-60.348L2093 302.592Z" fill="#ffffff17" stroke-width=".34883"/><path d="m2145.322 393.117 52.328-30.177v-60.348l-52.328 30.177v60.348Z" fill="#ffffff10" stroke-width=".34883"/><path d="m2093 302.592 52.322-30.172 52.328 30.172-52.328 30.177L2093 302.592Z" fill="#ffffff08" stroke-width=".34883"/></g><g fill="none"><path d="M52.325 393.289v60.348l52.322 30.176v-60.348L52.325 393.29ZM104.647 483.813l52.328-30.176v-60.348l-52.328 30.176v60.348Z" stroke-width=".34883"/><path d="m52.325 393.289 52.322-30.172 52.328 30.172-52.328 30.176-52.322-30.176Z" stroke-width=".34883"/></g><g fill="none"><path d="M156.975 393.289v60.348l52.322 30.176v-60.348l-52.322-30.176ZM209.297 483.813l52.328-30.176v-60.348l-52.328 30.176v60.348Z" stroke-width=".34883"/><path d="m156.975 393.289 52.322-30.172 52.328 30.172-52.328 30.176-52.322-30.176Z" stroke-width=".34883"/></g><g fill="none"><path d="M366.275 393.289v60.348l52.322 30.176v-60.348l-52.322-30.176ZM418.597 483.813l52.328-30.176v-60.348l-52.328 30.176v60.348Z" stroke-width=".34883"/><path d="m366.275 393.289 52.322-30.172 52.328 30.172-52.328 30.176-52.322-30.176Z" stroke-width=".34883"/></g><g fill="none"><path d="M470.925 393.289v60.348l52.322 30.176v-60.348l-52.322-30.176Z" stroke-width=".34883"/><path d="m523.247 483.813 52.328-30.176v-60.348l-52.328 30.176v60.348Z" stroke-width=".34883"/><path d="m470.925 393.289 52.322-30.172 52.328 30.172-52.328 30.176-52.322-30.176Z" stroke-width=".34883"/></g><g fill="none"><path d="M680.225 393.289v60.348l52.322 30.176v-60.348l-52.322-30.176ZM732.547 483.813l52.328-30.176v-60.348l-52.328 30.176v60.348Z" stroke-width=".34883"/><path d="m680.225 393.289 52.322-30.172 52.328 30.172-52.328 30.176-52.322-30.176Z" stroke-width=".34883"/></g><g fill="none"><path d="M784.875 393.289v60.348l52.322 30.176v-60.348l-52.322-30.176ZM837.197 483.813l52.328-30.176v-60.348l-52.328 30.176v60.348Z" stroke-width=".34883"/><path d="m784.875 393.289 52.322-30.172 52.328 30.172-52.328 30.176-52.322-30.176Z" stroke-width=".34883"/></g><g fill="none"><path d="M994.175 393.289v60.348l52.322 30.176v-60.348l-52.322-30.176ZM1046.497 483.813l52.328-30.176v-60.348l-52.328 30.176v60.348Z" stroke-width=".34883"/><path d="m994.175 393.289 52.322-30.172 52.328 30.172-52.328 30.176-52.322-30.176Z" stroke-width=".34883"/></g><g fill="none"><path d="M1098.825 393.289v60.348l52.322 30.176v-60.348l-52.322-30.176ZM1151.147 483.813l52.328-30.176v-60.348l-52.328 30.176v60.348Z" stroke-width=".34883"/><path d="m1098.825 393.289 52.322-30.172 52.328 30.172-52.328 30.176-52.322-30.176Z" stroke-width=".34883"/></g><g fill-rule="evenodd"><path d="M1203.475 393.289v60.348l52.322 30.176v-60.348l-52.322-30.176Z" fill="#ffffff16" stroke-width=".34883"/><path d="m1255.797 483.813 52.328-30.176v-60.348l-52.328 30.176v60.348Z" fill="#ffffff0f" stroke-width=".34883"/><path d="m1203.475 393.289 52.322-30.172 52.328 30.172-52.328 30.176-52.322-30.176Z" fill="#ffffff08" stroke-width=".34883"/></g><g fill="none"><path d="M1412.775 393.289v60.348l52.322 30.176v-60.348l-52.322-30.176Z" stroke-width=".34883"/><path d="m1465.097 483.813 52.328-30.176v-60.348l-52.328 30.176v60.348Z" stroke-width=".34883"/><path d="m1412.775 393.289 52.322-30.172 52.328 30.172-52.328 30.176-52.322-30.176Z" stroke-width=".34883"/></g><g fill-rule="evenodd"><path d="M1936.025 393.289v60.348l52.322 30.176v-60.348l-52.322-30.176Z" fill="#ffffff52" stroke-width=".34883"/><path d="m1988.347 483.813 52.328-30.176v-60.348l-52.328 30.176v60.348Z" fill="#ffffff39" stroke-width=".34883"/><path d="m1936.025 393.289 52.322-30.172 52.328 30.172-52.328 30.176-52.322-30.176Z" fill="#ffffff1d" stroke-width=".34883"/></g><g fill="none"><path d="M2040.675 393.289v60.348l52.322 30.176v-60.348l-52.322-30.176ZM2092.997 483.813l52.328-30.176v-60.348l-52.328 30.176v60.348Z" stroke-width=".34883"/><path d="m2040.675 393.289 52.322-30.172 52.328 30.172-52.328 30.176-52.322-30.176Z" stroke-width=".34883"/></g><g fill-rule="evenodd"><path d="M2145.325 393.289v60.348l52.322 30.176v-60.348l-52.322-30.176Z" fill="#ffffff33" stroke-width=".34883"/><path d="m2197.647 483.813 52.328-30.176v-60.348l-52.328 30.176v60.348Z" fill="#ffffff24" stroke-width=".34883"/><path d="m2145.325 393.289 52.322-30.172 52.328 30.172-52.328 30.176-52.322-30.176Z" fill="#ffffff12" stroke-width=".34883"/></g><g fill="none"><path d="M2249.975 393.289v60.348l52.322 30.176v-60.348l-52.322-30.176ZM2302.297 483.813l52.328-30.176v-60.348l-52.328 30.176v60.348Z" stroke-width=".34883"/><path d="m2249.975 393.289 52.322-30.172 52.328 30.172-52.328 30.176-52.322-30.176Z" stroke-width=".34883"/></g><g fill="none"><path d="M837.2 483.985v60.348l52.322 30.177v-60.348L837.2 483.985ZM889.522 574.51l52.328-30.177v-60.348l-52.328 30.177v60.348Z" stroke-width=".34883"/><path d="m837.2 483.985 52.322-30.171 52.328 30.171-52.328 30.177-52.322-30.177Z" stroke-width=".34883"/></g><g fill-rule="evenodd"><path d="M941.85 483.985v60.348l52.322 30.177v-60.348l-52.322-30.177Z" fill="#ffffff0f" stroke-width=".34883"/><path d="m994.172 574.51 52.328-30.177v-60.348l-52.328 30.177v60.348Z" fill="#ffffff0a" stroke-width=".34883"/><path d="m941.85 483.985 52.322-30.171 52.328 30.171-52.328 30.177-52.322-30.177Z" fill="#ffffff05" stroke-width=".34883"/></g><g fill="none"><path d="M1360.45 483.985v60.348l52.322 30.177v-60.348l-52.322-30.177ZM1412.772 574.51l52.328-30.177v-60.348l-52.328 30.177v60.348Z" stroke-width=".34883"/><path d="m1360.45 483.985 52.322-30.171 52.328 30.171-52.328 30.177-52.322-30.177Z" stroke-width=".34883"/></g><g fill-rule="evenodd"><path d="M1465.1 483.985v60.348l52.322 30.177v-60.348l-52.322-30.177Z" fill="#ffffff51" stroke-width=".34883"/><path d="m1517.422 574.51 52.328-30.177v-60.348l-52.328 30.177v60.348Z" fill="#ffffff38" stroke-width=".34883"/><path d="m1465.1 483.985 52.322-30.171 52.328 30.171-52.328 30.177-52.322-30.177Z" fill="#ffffff1c" stroke-width=".34883"/></g><g fill-rule="evenodd"><path d="M1569.75 483.985v60.348l52.322 30.177v-60.348l-52.322-30.177Z" fill="#ffffff44" stroke-width=".34883"/><path d="m1622.072 574.51 52.328-30.177v-60.348l-52.328 30.177v60.348Z" fill="#ffffff30" stroke-width=".34883"/><path d="m1569.75 483.985 52.322-30.171 52.328 30.171-52.328 30.177-52.322-30.177Z" fill="#ffffff18" stroke-width=".34883"/></g><g fill-rule="evenodd"><path d="M1883.7 483.985v60.348l52.322 30.177v-60.348l-52.322-30.177Z" fill="#ffffff38" stroke-width=".34883"/><path d="m1936.022 574.51 52.328-30.177v-60.348l-52.328 30.177v60.348Z" fill="#ffffff27" stroke-width=".34883"/><path d="m1883.7 483.985 52.322-30.171 52.328 30.171-52.328 30.177-52.322-30.177Z" fill="#ffffff14" stroke-width=".34883"/></g><g fill="none"><path d="M1988.35 483.985v60.348l52.322 30.177v-60.348l-52.322-30.177ZM2040.672 574.51 2093 544.333v-60.348l-52.328 30.177v60.348Z" stroke-width=".34883"/><path d="m1988.35 483.985 52.322-30.171L2093 483.985l-52.328 30.177-52.322-30.177Z" stroke-width=".34883"/></g><g fill-rule="evenodd"><path d="M2093 483.985v60.348l52.322 30.177v-60.348L2093 483.985Z" fill="#ffffff2b" stroke-width=".34883"/><path d="m2145.322 574.51 52.328-30.177v-60.348l-52.328 30.177v60.348Z" fill="#ffffff1e" stroke-width=".34883"/><path d="m2093 483.985 52.322-30.171 52.328 30.171-52.328 30.177L2093 483.985Z" fill="#ffffff0f" stroke-width=".34883"/></g><g fill-rule="evenodd"><path d="M680.225 574.682v60.348l52.322 30.177v-60.348l-52.322-30.177Z" fill="#ffffff14" stroke-width=".34883"/><path d="m732.547 665.207 52.328-30.177v-60.348l-52.328 30.177v60.348Z" fill="#ffffff0e" stroke-width=".34883"/><path d="m680.225 574.682 52.322-30.172 52.328 30.172-52.328 30.177-52.322-30.177Z" fill="#ffffff07" stroke-width=".34883"/></g><g fill="none"><path d="M784.875 574.682v60.348l52.322 30.177v-60.348l-52.322-30.177ZM837.197 665.207l52.328-30.177v-60.348l-52.328 30.177v60.348Z" stroke-width=".34883"/><path d="m784.875 574.682 52.322-30.172 52.328 30.172-52.328 30.177-52.322-30.177Z" stroke-width=".34883"/></g><g fill="none"><path d="M994.175 574.682v60.348l52.322 30.177v-60.348l-52.322-30.177ZM1046.497 665.207l52.328-30.177v-60.348l-52.328 30.177v60.348ZM994.175 574.682l52.322-30.172 52.328 30.172-52.328 30.177-52.322-30.177Z" stroke-width=".34883"/></g><g fill="none"><path d="M1412.775 574.682v60.348l52.322 30.177v-60.348l-52.322-30.177Z" stroke-width=".34883"/><path d="m1465.097 665.207 52.328-30.177v-60.348l-52.328 30.177v60.348Z" stroke-width=".34883"/><path d="m1412.775 574.682 52.322-30.172 52.328 30.172-52.328 30.177-52.322-30.177Z" stroke-width=".34883"/></g><g fill="none"><path d="M1517.425 574.682v60.348l52.322 30.177v-60.348l-52.322-30.177ZM1569.747 665.207l52.328-30.177v-60.348l-52.328 30.177v60.348Z" stroke-width=".34883"/><path d="m1517.425 574.682 52.322-30.172 52.328 30.172-52.328 30.177-52.322-30.177Z" stroke-width=".34883"/></g><g fill="none"><path d="M1622.075 574.682v60.348l52.322 30.177v-60.348l-52.322-30.177ZM1674.397 665.207l52.328-30.177v-60.348l-52.328 30.177v60.348Z" stroke-width=".34883"/><path d="m1622.075 574.682 52.322-30.172 52.328 30.172-52.328 30.177-52.322-30.177Z" stroke-width=".34883"/></g><g fill-rule="evenodd"><path d="M1831.375 574.682v60.348l52.322 30.177v-60.348l-52.322-30.177Z" fill="#ffffff01" stroke-width=".34883"/><path d="m1883.697 665.207 52.328-30.177v-60.348l-52.328 30.177v60.348Z" fill="#ffffff01" stroke-width=".34883"/><path d="m1831.375 574.682 52.322-30.172 52.328 30.172-52.328 30.177-52.322-30.177Z" fill="#ffffff00" stroke-width=".34883"/></g><g fill="none"><path d="M1936.025 574.682v60.348l52.322 30.177v-60.348l-52.322-30.177Z" stroke-width=".34883"/><path d="m1988.347 665.207 52.328-30.177v-60.348l-52.328 30.177v60.348Z" stroke-width=".34883"/><path d="m1936.025 574.682 52.322-30.172 52.328 30.172-52.328 30.177-52.322-30.177Z" stroke-width=".34883"/></g><g fill-rule="evenodd"><path d="M2040.675 574.682v60.348l52.322 30.177v-60.348l-52.322-30.177Z" fill="#ffffff5c" stroke-width=".34883"/><path d="m2092.997 665.207 52.328-30.177v-60.348l-52.328 30.177v60.348Z" fill="#ffffff40" stroke-width=".34883"/><path d="m2040.675 574.682 52.322-30.172 52.328 30.172-52.328 30.177-52.322-30.177Z" fill="#ffffff20" stroke-width=".34883"/></g><g fill-rule="evenodd"><path d="M2249.975 574.682v60.348l52.322 30.177v-60.348l-52.322-30.177Z" fill="#ffffff30" stroke-width=".34883"/><path d="m2302.297 665.207 52.328-30.177v-60.348l-52.328 30.177v60.348Z" fill="#ffffff22" stroke-width=".34883"/><path d="m2249.975 574.682 52.322-30.172 52.328 30.172-52.328 30.177-52.322-30.177Z" fill="#ffffff11" stroke-width=".34883"/></g><g fill="none"><path d="M0 665.379v60.348l52.322 30.176v-60.348L0 665.38ZM52.322 755.903l52.328-30.176v-60.348l-52.328 30.176v60.348Z" stroke-width=".34883"/><path d="m0 665.379 52.322-30.172 52.328 30.172-52.328 30.176L0 665.38Z" stroke-width=".34883"/></g><g fill="none"><path d="M209.3 665.379v60.348l52.322 30.176v-60.348L209.3 665.38ZM261.622 755.903l52.328-30.176v-60.348l-52.328 30.176v60.348Z" stroke-width=".34883"/><path d="m209.3 665.379 52.322-30.172 52.328 30.172-52.328 30.176L209.3 665.38Z" stroke-width=".34883"/></g><g fill="none"><path d="M313.95 665.379v60.348l52.322 30.176v-60.348L313.95 665.38ZM366.272 755.903l52.328-30.176v-60.348l-52.328 30.176v60.348Z" stroke-width=".34883"/><path d="m313.95 665.379 52.322-30.172L418.6 665.38l-52.328 30.176-52.322-30.176Z" stroke-width=".34883"/></g><g fill="none"><path d="M837.2 665.379v60.348l52.322 30.176v-60.348L837.2 665.38ZM889.522 755.903l52.328-30.176v-60.348l-52.328 30.176v60.348Z" stroke-width=".34883"/><path d="m837.2 665.379 52.322-30.172 52.328 30.172-52.328 30.176L837.2 665.38Z" stroke-width=".34883"/></g><g fill="none"><path d="M1255.8 665.379v60.348l52.322 30.176v-60.348L1255.8 665.38ZM1308.122 755.903l52.328-30.176v-60.348l-52.328 30.176v60.348Z" stroke-width=".34883"/><path d="m1255.8 665.379 52.322-30.172 52.328 30.172-52.328 30.176-52.322-30.176Z" stroke-width=".34883"/></g><g fill-rule="evenodd"><path d="M1360.45 665.379v60.348l52.322 30.176v-60.348l-52.322-30.176Z" fill="#ffffff31" stroke-width=".34883"/><path d="m1412.772 755.903 52.328-30.176v-60.348l-52.328 30.176v60.348Z" fill="#ffffff23" stroke-width=".34883"/><path d="m1360.45 665.379 52.322-30.172 52.328 30.172-52.328 30.176-52.322-30.176Z" fill="#ffffff11" stroke-width=".34883"/></g><g fill-rule="evenodd"><path d="M1465.1 665.379v60.348l52.322 30.176v-60.348L1465.1 665.38Z" fill="#ffffff03" stroke-width=".34883"/><path d="m1517.422 755.903 52.328-30.176v-60.348l-52.328 30.176v60.348Z" fill="#ffffff02" stroke-width=".34883"/><path d="m1465.1 665.379 52.322-30.172 52.328 30.172-52.328 30.176-52.322-30.176Z" fill="#ffffff01" stroke-width=".34883"/></g><g fill-rule="evenodd"><path d="M1883.7 665.379v60.348l52.322 30.176v-60.348L1883.7 665.38Z" fill="#ffffff24" stroke-width=".34883"/><path d="m1936.022 755.903 52.328-30.176v-60.348l-52.328 30.176v60.348Z" fill="#ffffff19" stroke-width=".34883"/><path d="m1883.7 665.379 52.322-30.172 52.328 30.172-52.328 30.176-52.322-30.176Z" fill="#ffffff0d" stroke-width=".34883"/></g><g fill="none"><path d="M2197.65 665.379v60.348l52.322 30.176v-60.348l-52.322-30.176ZM2249.972 755.903l52.328-30.176v-60.348l-52.328 30.176v60.348Z" stroke-width=".34883"/><path d="m2197.65 665.379 52.322-30.172 52.328 30.172-52.328 30.176-52.322-30.176Z" stroke-width=".34883"/></g><g fill="none"><path d="M52.325 756.075v60.348l52.322 30.177v-60.348l-52.322-30.177ZM104.647 846.6l52.328-30.177v-60.348l-52.328 30.177V846.6Z" stroke-width=".34883"/><path d="m52.325 756.075 52.322-30.171 52.328 30.171-52.328 30.177-52.322-30.177Z" stroke-width=".34883"/></g><g fill="none"><path d="M156.975 756.075v60.348l52.322 30.177v-60.348l-52.322-30.177ZM209.297 846.6l52.328-30.177v-60.348l-52.328 30.177V846.6Z" stroke-width=".34883"/><path d="m156.975 756.075 52.322-30.171 52.328 30.171-52.328 30.177-52.322-30.177Z" stroke-width=".34883"/></g><g fill="none"><path d="M261.625 756.075v60.348l52.322 30.177v-60.348l-52.322-30.177ZM313.947 846.6l52.328-30.177v-60.348l-52.328 30.177V846.6Z" stroke-width=".34883"/><path d="m261.625 756.075 52.322-30.171 52.328 30.171-52.328 30.177-52.322-30.177Z" stroke-width=".34883"/></g><g fill="none"><path d="M366.275 756.075v60.348l52.322 30.177v-60.348l-52.322-30.177ZM418.597 846.6l52.328-30.177v-60.348l-52.328 30.177V846.6Z" stroke-width=".34883"/><path d="m366.275 756.075 52.322-30.171 52.328 30.171-52.328 30.177-52.322-30.177Z" stroke-width=".34883"/></g><g fill="none"><path d="M470.925 756.075v60.348l52.322 30.177v-60.348l-52.322-30.177Z" stroke-width=".34883"/><path d="m523.247 846.6 52.328-30.177v-60.348l-52.328 30.177V846.6Z" stroke-width=".34883"/><path d="m470.925 756.075 52.322-30.171 52.328 30.171-52.328 30.177-52.322-30.177Z" stroke-width=".34883"/></g><g fill="none"><path d="M575.575 756.075v60.348l52.322 30.177v-60.348l-52.322-30.177ZM627.897 846.6l52.328-30.177v-60.348l-52.328 30.177V846.6Z" stroke-width=".34883"/><path d="m575.575 756.075 52.322-30.171 52.328 30.171-52.328 30.177-52.322-30.177Z" stroke-width=".34883"/></g><g fill-rule="evenodd"><path d="M680.225 756.075v60.348l52.322 30.177v-60.348l-52.322-30.177Z" fill="#ffffff1c" stroke-width=".34883"/><path d="m732.547 846.6 52.328-30.177v-60.348l-52.328 30.177V846.6Z" fill="#ffffff14" stroke-width=".34883"/><path d="m680.225 756.075 52.322-30.171 52.328 30.171-52.328 30.177-52.322-30.177Z" fill="#ffffff0a" stroke-width=".34883"/></g><g fill="none"><path d="M1203.475 756.075v60.348l52.322 30.177v-60.348l-52.322-30.177ZM1255.797 846.6l52.328-30.177v-60.348l-52.328 30.177V846.6Z" stroke-width=".34883"/><path d="m1203.475 756.075 52.322-30.171 52.328 30.171-52.328 30.177-52.322-30.177Z" stroke-width=".34883"/></g><g fill="none"><path d="M1308.125 756.075v60.348l52.322 30.177v-60.348l-52.322-30.177Z" stroke-width=".34883"/><path d="m1360.447 846.6 52.328-30.177v-60.348l-52.328 30.177V846.6Z" stroke-width=".34883"/><path d="m1308.125 756.075 52.322-30.171 52.328 30.171-52.328 30.177-52.322-30.177Z" stroke-width=".34883"/></g><g fill="none"><path d="M1412.775 756.075v60.348l52.322 30.177v-60.348l-52.322-30.177Z" stroke-width=".34883"/><path d="m1465.097 846.6 52.328-30.177v-60.348l-52.328 30.177V846.6Z" stroke-width=".34883"/><path d="m1412.775 756.075 52.322-30.171 52.328 30.171-52.328 30.177-52.322-30.177Z" stroke-width=".34883"/></g><g fill-rule="evenodd"><path d="M1831.375 756.075v60.348l52.322 30.177v-60.348l-52.322-30.177Z" fill="#ffffff52" stroke-width=".34883"/><path d="m1883.697 846.6 52.328-30.177v-60.348l-52.328 30.177V846.6Z" fill="#ffffff39" stroke-width=".34883"/><path d="m1831.375 756.075 52.322-30.171 52.328 30.171-52.328 30.177-52.322-30.177Z" fill="#ffffff1d" stroke-width=".34883"/></g><g fill-rule="evenodd"><path d="M2040.675 756.075v60.348l52.322 30.177v-60.348l-52.322-30.177Z" fill="#ffffff37" stroke-width=".34883"/><path d="m2092.997 846.6 52.328-30.177v-60.348l-52.328 30.177V846.6Z" fill="#ffffff27" stroke-width=".34883"/><path d="m2040.675 756.075 52.322-30.171 52.328 30.171-52.328 30.177-52.322-30.177Z" fill="#ffffff13" stroke-width=".34883"/></g><g fill="none"><path d="M104.65 846.772v60.348l52.322 30.177v-60.348l-52.322-30.177ZM156.972 937.297 209.3 907.12v-60.348l-52.328 30.177v60.348Z" stroke-width=".34883"/><path d="m104.65 846.772 52.322-30.172 52.328 30.172-52.328 30.177-52.322-30.177Z" stroke-width=".34883"/></g><g fill="none"><path d="M418.6 846.772v60.348l52.322 30.177v-60.348L418.6 846.772ZM470.922 937.297l52.328-30.177v-60.348l-52.328 30.177v60.348Z" stroke-width=".34883"/><path d="m418.6 846.772 52.322-30.172 52.328 30.172-52.328 30.177-52.322-30.177Z" stroke-width=".34883"/></g><g fill="none"><path d="M523.25 846.772v60.348l52.322 30.177v-60.348l-52.322-30.177ZM575.572 937.297 627.9 907.12v-60.348l-52.328 30.177v60.348Z" stroke-width=".34883"/><path d="m523.25 846.772 52.322-30.172 52.328 30.172-52.328 30.177-52.322-30.177Z" stroke-width=".34883"/></g><g fill="none"><path d="M837.2 846.772v60.348l52.322 30.177v-60.348L837.2 846.772ZM889.522 937.297l52.328-30.177v-60.348l-52.328 30.177v60.348Z" stroke-width=".34883"/><path d="m837.2 846.772 52.322-30.172 52.328 30.172-52.328 30.177-52.322-30.177Z" stroke-width=".34883"/></g><g fill-rule="evenodd"><path d="M1046.5 846.772v60.348l52.322 30.177v-60.348l-52.322-30.177Z" fill="#ffffff5a" stroke-width=".34883"/><path d="m1098.822 937.297 52.328-30.177v-60.348l-52.328 30.177v60.348Z" fill="#ffffff3f" stroke-width=".34883"/><path d="m1046.5 846.772 52.322-30.172 52.328 30.172-52.328 30.177-52.322-30.177Z" fill="#ffffff1f" stroke-width=".34883"/></g><g fill="none"><path d="M1151.15 846.772v60.348l52.322 30.177v-60.348l-52.322-30.177Z" stroke-width=".34883"/><path d="m1203.472 937.297 52.328-30.177v-60.348l-52.328 30.177v60.348Z" stroke-width=".34883"/><path d="m1151.15 846.772 52.322-30.172 52.328 30.172-52.328 30.177-52.322-30.177Z" stroke-width=".34883"/></g><g fill="none"><path d="M1255.8 846.772v60.348l52.322 30.177v-60.348l-52.322-30.177ZM1308.122 937.297l52.328-30.177v-60.348l-52.328 30.177v60.348Z" stroke-width=".34883"/><path d="m1255.8 846.772 52.322-30.172 52.328 30.172-52.328 30.177-52.322-30.177Z" stroke-width=".34883"/></g><g fill-rule="evenodd"><path d="M156.975 937.469v60.348l52.322 30.176v-60.348l-52.322-30.176Z" fill="#ffffff0f" stroke-width=".34883"/><path d="m209.297 1027.993 52.328-30.176v-60.348l-52.328 30.176v60.348Z" fill="#ffffff0a" stroke-width=".34883"/><path d="m156.975 937.469 52.322-30.172 52.328 30.172-52.328 30.176-52.322-30.176Z" fill="#ffffff05" stroke-width=".34883"/></g><g fill="none"><path d="M366.275 937.469v60.348l52.322 30.176v-60.348l-52.322-30.176ZM418.597 1027.993l52.328-30.176v-60.348l-52.328 30.176v60.348Z" stroke-width=".34883"/><path d="m366.275 937.469 52.322-30.172 52.328 30.172-52.328 30.176-52.322-30.176Z" stroke-width=".34883"/></g><g fill="none"><path d="M470.925 937.469v60.348l52.322 30.176v-60.348l-52.322-30.176Z" stroke-width=".34883"/><path d="m523.247 1027.993 52.328-30.176v-60.348l-52.328 30.176v60.348Z" stroke-width=".34883"/><path d="m470.925 937.469 52.322-30.172 52.328 30.172-52.328 30.176-52.322-30.176Z" stroke-width=".34883"/></g><g fill="none"><path d="M575.575 937.469v60.348l52.322 30.176v-60.348l-52.322-30.176ZM627.897 1027.993l52.328-30.176v-60.348l-52.328 30.176v60.348Z" stroke-width=".34883"/><path d="m575.575 937.469 52.322-30.172 52.328 30.172-52.328 30.176-52.322-30.176Z" stroke-width=".34883"/></g><g fill="none"><path d="M994.175 937.469v60.348l52.322 30.176v-60.348l-52.322-30.176ZM1046.497 1027.993l52.328-30.176v-60.348l-52.328 30.176v60.348Z" stroke-width=".34883"/><path d="m994.175 937.469 52.322-30.172 52.328 30.172-52.328 30.176-52.322-30.176Z" stroke-width=".34883"/></g><g fill-rule="evenodd"><path d="M1098.825 937.469v60.348l52.322 30.176v-60.348l-52.322-30.176Z" fill="#ffffff05" stroke-width=".34883"/><path d="m1151.147 1027.993 52.328-30.176v-60.348l-52.328 30.176v60.348Z" fill="#ffffff03" stroke-width=".34883"/><path d="m1098.825 937.469 52.322-30.172 52.328 30.172-52.328 30.176-52.322-30.176Z" fill="#ffffff02" stroke-width=".34883"/></g><g fill-rule="evenodd"><path d="M1308.125 937.469v60.348l52.322 30.176v-60.348l-52.322-30.176Z" fill="#ffffff56" stroke-width=".34883"/><path d="m1360.447 1027.993 52.328-30.176v-60.348l-52.328 30.176v60.348Z" fill="#ffffff3c" stroke-width=".34883"/><path d="m1308.125 937.469 52.322-30.172 52.328 30.172-52.328 30.176-52.322-30.176Z" fill="#ffffff1e" stroke-width=".34883"/></g><g fill="none"><path d="M1412.775 937.469v60.348l52.322 30.176v-60.348l-52.322-30.176Z" stroke-width=".34883"/><path d="m1465.097 1027.993 52.328-30.176v-60.348l-52.328 30.176v60.348Z" stroke-width=".34883"/><path d="m1412.775 937.469 52.322-30.172 52.328 30.172-52.328 30.176-52.322-30.176Z" stroke-width=".34883"/></g><g fill="none"><path d="M1622.075 937.469v60.348l52.322 30.176v-60.348l-52.322-30.176ZM1674.397 1027.993l52.328-30.176v-60.348l-52.328 30.176v60.348Z" stroke-width=".34883"/><path d="m1622.075 937.469 52.322-30.172 52.328 30.172-52.328 30.176-52.322-30.176Z" stroke-width=".34883"/></g><g fill="none"><path d="M1726.725 937.469v60.348l52.322 30.176v-60.348l-52.322-30.176ZM1779.047 1027.993l52.328-30.176v-60.348l-52.328 30.176v60.348Z" stroke-width=".34883"/><path d="m1726.725 937.469 52.322-30.172 52.328 30.172-52.328 30.176-52.322-30.176Z" stroke-width=".34883"/></g><g fill="none"><path d="M2040.675 937.469v60.348l52.322 30.176v-60.348l-52.322-30.176ZM2092.997 1027.993l52.328-30.176v-60.348l-52.328 30.176v60.348Z" stroke-width=".34883"/><path d="m2040.675 937.469 52.322-30.172 52.328 30.172-52.328 30.176-52.322-30.176Z" stroke-width=".34883"/></g><g fill="none"><path d="M209.3 1028.165v60.348l52.322 30.177v-60.348l-52.322-30.177ZM261.622 1118.69l52.328-30.177v-60.348l-52.328 30.177v60.348ZM209.3 1028.165l52.322-30.171 52.328 30.171-52.328 30.177-52.322-30.177Z" stroke-width=".34883"/></g><g fill="none"><path d="M627.9 1028.165v60.348l52.322 30.177v-60.348l-52.322-30.177ZM680.222 1118.69l52.328-30.177v-60.348l-52.328 30.177v60.348Z" stroke-width=".34883"/><path d="m627.9 1028.165 52.322-30.171 52.328 30.171-52.328 30.177-52.322-30.177Z" stroke-width=".34883"/></g><g fill-rule="evenodd"><path d="M941.85 1028.165v60.348l52.322 30.177v-60.348l-52.322-30.177Z" fill="#ffffff26" stroke-width=".34883"/><path d="m994.172 1118.69 52.328-30.177v-60.348l-52.328 30.177v60.348Z" fill="#ffffff1a" stroke-width=".34883"/><path d="m941.85 1028.165 52.322-30.171 52.328 30.171-52.328 30.177-52.322-30.177Z" fill="#ffffff0d" stroke-width=".34883"/></g><g fill-rule="evenodd"><path d="M1046.5 1028.165v60.348l52.322 30.177v-60.348l-52.322-30.177Z" fill="#ffffff03" stroke-width=".34883"/><path d="m1098.822 1118.69 52.328-30.177v-60.348l-52.328 30.177v60.348Z" fill="#ffffff02" stroke-width=".34883"/><path d="m1046.5 1028.165 52.322-30.171 52.328 30.171-52.328 30.177-52.322-30.177Z" fill="#ffffff01" stroke-width=".34883"/></g><g fill="none"><path d="M1151.15 1028.165v60.348l52.322 30.177v-60.348l-52.322-30.177Z" stroke-width=".34883"/><path d="m1203.472 1118.69 52.328-30.177v-60.348l-52.328 30.177v60.348ZM1151.15 1028.165l52.322-30.171 52.328 30.171-52.328 30.177-52.322-30.177Z" stroke-width=".34883"/></g><g fill="none"><path d="M1255.8 1028.165v60.348l52.322 30.177v-60.348l-52.322-30.177ZM1308.122 1118.69l52.328-30.177v-60.348l-52.328 30.177v60.348Z" stroke-width=".34883"/><path d="m1255.8 1028.165 52.322-30.171 52.328 30.171-52.328 30.177-52.322-30.177Z" stroke-width=".34883"/></g><g fill-rule="evenodd"><path d="M1360.45 1028.165v60.348l52.322 30.177v-60.348l-52.322-30.177Z" fill="#ffffff59" stroke-width=".34883"/><path d="m1412.772 1118.69 52.328-30.177v-60.348l-52.328 30.177v60.348Z" fill="#ffffff3f" stroke-width=".34883"/><path d="m1360.45 1028.165 52.322-30.171 52.328 30.171-52.328 30.177-52.322-30.177Z" fill="#ffffff1f" stroke-width=".34883"/></g><g fill="none"><path d="M1465.1 1028.165v60.348l52.322 30.177v-60.348l-52.322-30.177ZM1517.422 1118.69l52.328-30.177v-60.348l-52.328 30.177v60.348Z" stroke-width=".34883"/><path d="m1465.1 1028.165 52.322-30.171 52.328 30.171-52.328 30.177-52.322-30.177Z" stroke-width=".34883"/></g><g fill="none"><path d="M1779.05 1028.165v60.348l52.322 30.177v-60.348l-52.322-30.177ZM1831.372 1118.69l52.328-30.177v-60.348l-52.328 30.177v60.348Z" stroke-width=".34883"/><path d="m1779.05 1028.165 52.322-30.171 52.328 30.171-52.328 30.177-52.322-30.177Z" stroke-width=".34883"/></g><g fill-rule="evenodd"><path d="M1883.7 1028.165v60.348l52.322 30.177v-60.348l-52.322-30.177Z" fill="#ffffff52" stroke-width=".34883"/><path d="m1936.022 1118.69 52.328-30.177v-60.348l-52.328 30.177v60.348Z" fill="#ffffff39" stroke-width=".34883"/><path d="m1883.7 1028.165 52.322-30.171 52.328 30.171-52.328 30.177-52.322-30.177Z" fill="#ffffff1d" stroke-width=".34883"/></g><g fill="none"><path d="M52.325 1118.862v60.348l52.322 30.177v-60.348l-52.322-30.177ZM104.647 1209.387l52.328-30.177v-60.348l-52.328 30.177v60.348Z" stroke-width=".34883"/><path d="m52.325 1118.862 52.322-30.172 52.328 30.172-52.328 30.177-52.322-30.177Z" stroke-width=".34883"/></g><g fill="none"><path d="M261.625 1118.862v60.348l52.322 30.177v-60.348l-52.322-30.177ZM313.947 1209.387l52.328-30.177v-60.348l-52.328 30.177v60.348Z" stroke-width=".34883"/><path d="m261.625 1118.862 52.322-30.172 52.328 30.172-52.328 30.177-52.322-30.177Z" stroke-width=".34883"/></g><g fill-rule="evenodd"><path d="M680.225 1118.862v60.348l52.322 30.177v-60.348l-52.322-30.177Z" fill="#ffffff2b" stroke-width=".34883"/><path d="m732.547 1209.387 52.328-30.177v-60.348l-52.328 30.177v60.348Z" fill="#ffffff1e" stroke-width=".34883"/><path d="m680.225 1118.862 52.322-30.172 52.328 30.172-52.328 30.177-52.322-30.177Z" fill="#ffffff0f" stroke-width=".34883"/></g><g fill="none"><path d="M994.175 1118.862v60.348l52.322 30.177v-60.348l-52.322-30.177ZM1046.497 1209.387l52.328-30.177v-60.348l-52.328 30.177v60.348Z" stroke-width=".34883"/><path d="m994.175 1118.862 52.322-30.172 52.328 30.172-52.328 30.177-52.322-30.177Z" stroke-width=".34883"/></g><g fill="none"><path d="M1098.825 1118.862v60.348l52.322 30.177v-60.348l-52.322-30.177ZM1151.147 1209.387l52.328-30.177v-60.348l-52.328 30.177v60.348Z" stroke-width=".34883"/><path d="m1098.825 1118.862 52.322-30.172 52.328 30.172-52.328 30.177-52.322-30.177Z" stroke-width=".34883"/></g><g fill="none"><path d="M1203.475 1118.862v60.348l52.322 30.177v-60.348l-52.322-30.177ZM1255.797 1209.387l52.328-30.177v-60.348l-52.328 30.177v60.348Z" stroke-width=".34883"/><path d="m1203.475 1118.862 52.322-30.172 52.328 30.172-52.328 30.177-52.322-30.177Z" stroke-width=".34883"/></g><g fill="none"><path d="M1412.775 1118.862v60.348l52.322 30.177v-60.348l-52.322-30.177Z" stroke-width=".34883"/><path d="m1465.097 1209.387 52.328-30.177v-60.348l-52.328 30.177v60.348Z" stroke-width=".34883"/><path d="m1412.775 1118.862 52.322-30.172 52.328 30.172-52.328 30.177-52.322-30.177Z" stroke-width=".34883"/></g><g fill="none"><path d="M1622.075 1118.862v60.348l52.322 30.177v-60.348l-52.322-30.177ZM1674.397 1209.387l52.328-30.177v-60.348l-52.328 30.177v60.348Z" stroke-width=".34883"/><path d="m1622.075 1118.862 52.322-30.172 52.328 30.172-52.328 30.177-52.322-30.177Z" stroke-width=".34883"/></g><g fill="none"><path d="M1726.725 1118.862v60.348l52.322 30.177v-60.348l-52.322-30.177ZM1779.047 1209.387l52.328-30.177v-60.348l-52.328 30.177v60.348Z" stroke-width=".34883"/><path d="m1726.725 1118.862 52.322-30.172 52.328 30.172-52.328 30.177-52.322-30.177Z" stroke-width=".34883"/></g><g fill="none"><path d="M1936.025 1118.862v60.348l52.322 30.177v-60.348l-52.322-30.177Z" stroke-width=".34883"/><path d="m1988.347 1209.387 52.328-30.177v-60.348l-52.328 30.177v60.348Z" stroke-width=".34883"/><path d="m1936.025 1118.862 52.322-30.172 52.328 30.172-52.328 30.177-52.322-30.177Z" stroke-width=".34883"/></g><g fill-rule="evenodd"><path d="M2145.325 1118.862v60.348l52.322 30.177v-60.348l-52.322-30.177Z" fill="#ffffff26" stroke-width=".34883"/><path d="m2197.647 1209.387 52.328-30.177v-60.348l-52.328 30.177v60.348Z" fill="#ffffff1a" stroke-width=".34883"/><path d="m2145.325 1118.862 52.322-30.172 52.328 30.172-52.328 30.177-52.322-30.177Z" fill="#ffffff0d" stroke-width=".34883"/></g><g fill="none"><path d="M104.65 1209.559v60.348l52.322 30.176v-60.348l-52.322-30.176ZM156.972 1300.083l52.328-30.176v-60.348l-52.328 30.176v60.348Z" stroke-width=".34883"/><path d="m104.65 1209.559 52.322-30.172 52.328 30.172-52.328 30.176-52.322-30.176Z" stroke-width=".34883"/></g><g fill="none"><path d="M418.6 1209.559v60.348l52.322 30.176v-60.348L418.6 1209.56ZM470.922 1300.083l52.328-30.176v-60.348l-52.328 30.176v60.348Z" stroke-width=".34883"/><path d="m418.6 1209.559 52.322-30.172 52.328 30.172-52.328 30.176-52.322-30.176Z" stroke-width=".34883"/></g><g fill-rule="evenodd"><path d="M523.25 1209.559v60.348l52.322 30.176v-60.348l-52.322-30.176Z" fill="#ffffff39" stroke-width=".34883"/><path d="m575.572 1300.083 52.328-30.176v-60.348l-52.328 30.176v60.348Z" fill="#ffffff28" stroke-width=".34883"/><path d="m523.25 1209.559 52.322-30.172 52.328 30.172-52.328 30.176-52.322-30.176Z" fill="#ffffff14" stroke-width=".34883"/></g><g fill-rule="evenodd"><path d="M627.9 1209.559v60.348l52.322 30.176v-60.348L627.9 1209.56Z" fill="#ffffff4e" stroke-width=".34883"/><path d="m680.222 1300.083 52.328-30.176v-60.348l-52.328 30.176v60.348Z" fill="#ffffff37" stroke-width=".34883"/><path d="m627.9 1209.559 52.322-30.172 52.328 30.172-52.328 30.176-52.322-30.176Z" fill="#ffffff1b" stroke-width=".34883"/></g><g fill-rule="evenodd"><path d="M837.2 1209.559v60.348l52.322 30.176v-60.348L837.2 1209.56Z" fill="#ffffff13" stroke-width=".34883"/><path d="m889.522 1300.083 52.328-30.176v-60.348l-52.328 30.176v60.348Z" fill="#ffffff0d" stroke-width=".34883"/><path d="m837.2 1209.559 52.322-30.172 52.328 30.172-52.328 30.176-52.322-30.176Z" fill="#ffffff07" stroke-width=".34883"/></g><g fill="none"><path d="M1046.5 1209.559v60.348l52.322 30.176v-60.348l-52.322-30.176Z" stroke-width=".34883"/><path d="m1098.822 1300.083 52.328-30.176v-60.348l-52.328 30.176v60.348ZM1046.5 1209.559l52.322-30.172 52.328 30.172-52.328 30.176-52.322-30.176Z" stroke-width=".34883"/></g><g fill="none"><path d="M1255.8 1209.559v60.348l52.322 30.176v-60.348l-52.322-30.176ZM1308.122 1300.083l52.328-30.176v-60.348l-52.328 30.176v60.348Z" stroke-width=".34883"/><path d="m1255.8 1209.559 52.322-30.172 52.328 30.172-52.328 30.176-52.322-30.176Z" stroke-width=".34883"/></g><g fill="none"><path d="M1465.1 1209.559v60.348l52.322 30.176v-60.348l-52.322-30.176ZM1517.422 1300.083l52.328-30.176v-60.348l-52.328 30.176v60.348Z" stroke-width=".34883"/><path d="m1465.1 1209.559 52.322-30.172 52.328 30.172-52.328 30.176-52.322-30.176Z" stroke-width=".34883"/></g><g fill="none"><path d="M1674.4 1209.559v60.348l52.322 30.176v-60.348l-52.322-30.176Z" stroke-width=".34883"/><path d="m1726.722 1300.083 52.328-30.176v-60.348l-52.328 30.176v60.348ZM1674.4 1209.559l52.322-30.172 52.328 30.172-52.328 30.176-52.322-30.176Z" stroke-width=".34883"/></g><g fill="none"><path d="M2093 1209.559v60.348l52.322 30.176v-60.348L2093 1209.56ZM2145.322 1300.083l52.328-30.176v-60.348l-52.328 30.176v60.348Z" stroke-width=".34883"/><path d="m2093 1209.559 52.322-30.172 52.328 30.172-52.328 30.176L2093 1209.56Z" stroke-width=".34883"/></g><g fill-rule="evenodd"><path d="M2197.65 1209.559v60.348l52.322 30.176v-60.348l-52.322-30.176Z" fill="#ffffff47" stroke-width=".34883"/><path d="m2249.972 1300.083 52.328-30.176v-60.348l-52.328 30.176v60.348Z" fill="#ffffff32" stroke-width=".34883"/><path d="m2197.65 1209.559 52.322-30.172 52.328 30.172-52.328 30.176-52.322-30.176Z" fill="#ffffff19" stroke-width=".34883"/></g><g fill="none"><path d="M52.325 1300.255v60.348l52.322 30.177v-60.348l-52.322-30.177ZM104.647 1390.78l52.328-30.177v-60.348l-52.328 30.177v60.348Z" stroke-width=".34883"/><path d="m52.325 1300.255 52.322-30.171 52.328 30.171-52.328 30.177-52.322-30.177Z" stroke-width=".34883"/></g><g fill-rule="evenodd"><path d="M156.975 1300.255v60.348l52.322 30.177v-60.348l-52.322-30.177Z" fill="#ffffff5c" stroke-width=".34883"/><path d="m209.297 1390.78 52.328-30.177v-60.348l-52.328 30.177v60.348Z" fill="#ffffff40" stroke-width=".34883"/><path d="m156.975 1300.255 52.322-30.171 52.328 30.171-52.328 30.177-52.322-30.177Z" fill="#ffffff20" stroke-width=".34883"/></g><g fill-rule="evenodd"><path d="M261.625 1300.255v60.348l52.322 30.177v-60.348l-52.322-30.177Z" fill="#ffffff12" stroke-width=".34883"/><path d="m313.947 1390.78 52.328-30.177v-60.348l-52.328 30.177v60.348Z" fill="#ffffff0d" stroke-width=".34883"/><path d="m261.625 1300.255 52.322-30.171 52.328 30.171-52.328 30.177-52.322-30.177Z" fill="#ffffff06" stroke-width=".34883"/></g><g fill="none"><path d="M575.575 1300.255v60.348l52.322 30.177v-60.348l-52.322-30.177ZM627.897 1390.78l52.328-30.177v-60.348l-52.328 30.177v60.348Z" stroke-width=".34883"/><path d="m575.575 1300.255 52.322-30.171 52.328 30.171-52.328 30.177-52.322-30.177Z" stroke-width=".34883"/></g><g fill="none"><path d="M784.875 1300.255v60.348l52.322 30.177v-60.348l-52.322-30.177ZM837.197 1390.78l52.328-30.177v-60.348l-52.328 30.177v60.348Z" stroke-width=".34883"/><path d="m784.875 1300.255 52.322-30.171 52.328 30.171-52.328 30.177-52.322-30.177Z" stroke-width=".34883"/></g><g fill="none"><path d="M889.525 1300.255v60.348l52.322 30.177v-60.348l-52.322-30.177ZM941.847 1390.78l52.328-30.177v-60.348l-52.328 30.177v60.348Z" stroke-width=".34883"/><path d="m889.525 1300.255 52.322-30.171 52.328 30.171-52.328 30.177-52.322-30.177Z" stroke-width=".34883"/></g><g fill="none"><path d="M994.175 1300.255v60.348l52.322 30.177v-60.348l-52.322-30.177ZM1046.497 1390.78l52.328-30.177v-60.348l-52.328 30.177v60.348Z" stroke-width=".34883"/><path d="m994.175 1300.255 52.322-30.171 52.328 30.171-52.328 30.177-52.322-30.177Z" stroke-width=".34883"/></g><g fill="none"><path d="M1412.775 1300.255v60.348l52.322 30.177v-60.348l-52.322-30.177Z" stroke-width=".34883"/><path d="m1465.097 1390.78 52.328-30.177v-60.348l-52.328 30.177v60.348Z" stroke-width=".34883"/><path d="m1412.775 1300.255 52.322-30.171 52.328 30.171-52.328 30.177-52.322-30.177Z" stroke-width=".34883"/></g><g fill="none"><path d="M1622.075 1300.255v60.348l52.322 30.177v-60.348l-52.322-30.177ZM1674.397 1390.78l52.328-30.177v-60.348l-52.328 30.177v60.348Z" stroke-width=".34883"/><path d="m1622.075 1300.255 52.322-30.171 52.328 30.171-52.328 30.177-52.322-30.177Z" stroke-width=".34883"/></g><g fill="none"><path d="M1726.725 1300.255v60.348l52.322 30.177v-60.348l-52.322-30.177ZM1779.047 1390.78l52.328-30.177v-60.348l-52.328 30.177v60.348Z" stroke-width=".34883"/><path d="m1726.725 1300.255 52.322-30.171 52.328 30.171-52.328 30.177-52.322-30.177Z" stroke-width=".34883"/></g><g fill="none"><path d="M1831.375 1300.255v60.348l52.322 30.177v-60.348l-52.322-30.177Z" stroke-width=".34883"/><path d="m1883.697 1390.78 52.328-30.177v-60.348l-52.328 30.177v60.348Z" stroke-width=".34883"/><path d="m1831.375 1300.255 52.322-30.171 52.328 30.171-52.328 30.177-52.322-30.177Z" stroke-width=".34883"/></g><g fill="none"><path d="M2040.675 1300.255v60.348l52.322 30.177v-60.348l-52.322-30.177ZM2092.997 1390.78l52.328-30.177v-60.348l-52.328 30.177v60.348Z" stroke-width=".34883"/><path d="m2040.675 1300.255 52.322-30.171 52.328 30.171-52.328 30.177-52.322-30.177Z" stroke-width=".34883"/></g><g fill="none"><path d="M2145.325 1300.255v60.348l52.322 30.177v-60.348l-52.322-30.177ZM2197.647 1390.78l52.328-30.177v-60.348l-52.328 30.177v60.348Z" stroke-width=".34883"/><path d="m2145.325 1300.255 52.322-30.171 52.328 30.171-52.328 30.177-52.322-30.177Z" stroke-width=".34883"/></g><g fill="none"><path d="M2249.975 1300.255v60.348l52.322 30.177v-60.348l-52.322-30.177ZM2302.297 1390.78l52.328-30.177v-60.348l-52.328 30.177v60.348Z" stroke-width=".34883"/><path d="m2249.975 1300.255 52.322-30.171 52.328 30.171-52.328 30.177-52.322-30.177Z" stroke-width=".34883"/></g></g><defs><radialGradient id="a"><stop offset="0" stop-color="#fff"/><stop offset="1" stop-color="#fff"/></radialGradient></defs></svg>