<svg xmlns="http://www.w3.org/2000/svg" xmlns:xlink="http://www.w3.org/1999/xlink" viewBox="0 0 389.46 98"><defs><style>.cls-1{fill:none;}.cls-2{clip-path:url(#clip-path);}.cls-3{fill:#c51642;}.cls-4{fill:#3c85b6;}.cls-5{fill:#333a94;}</style><clipPath id="clip-path" transform="translate(0 0)"><rect class="cls-1" width="389.79" height="98"/></clipPath></defs><g id="Layer_2" data-name="Layer 2"><g id="Layer_1-2" data-name="Layer 1"><g class="cls-2"><path class="cls-3" d="M23.43,20.26H38.86L22.56,3.91A13.21,13.21,0,0,0,0,13.28V64.9A13.23,13.23,0,0,0,13.21,78.14H49.42L14.13,42.76A13.18,13.18,0,0,1,23.43,20.26Z" transform="translate(0 0)"/><path class="cls-4" d="M74.65,20.26H38.86L74,55.52a13.26,13.26,0,0,1-9.35,22.62H49.42l15.93,16a13.14,13.14,0,0,0,22.44-9.32V33.44A13.16,13.16,0,0,0,74.65,20.26Z" transform="translate(0 0)"/><path class="cls-5" d="M74,55.52,38.86,20.26H23.43a13.19,13.19,0,0,0-9.3,22.5L49.42,78.14H64.7C76.47,78.14,82.36,63.87,74,55.52Z" transform="translate(0 0)"/><path class="cls-5" d="M130.28,34.1l-1.54,6.24a21.84,21.84,0,0,0-2.21-.62,25.31,25.31,0,0,0-2.59-.48c-.9-.13-1.79-.23-2.69-.29s-1.76-.1-2.59-.1a9.67,9.67,0,0,0-4.32.77,2.53,2.53,0,0,0-1.49,2.4,2.58,2.58,0,0,0,.48,1.54,4.47,4.47,0,0,0,1.54,1.15,18.93,18.93,0,0,0,2.74,1c1.11.36,2.46.74,4,1.16a21.58,21.58,0,0,1,4.41,1.53,11.16,11.16,0,0,1,3.17,2.07,6.94,6.94,0,0,1,1.92,2.73,8.93,8.93,0,0,1,.67,3.6,8.8,8.8,0,0,1-1.72,5.52A10.76,10.76,0,0,1,125,65.83,25.67,25.67,0,0,1,116.74,67c-1.09,0-2.21,0-3.36-.14s-2.32-.23-3.5-.39-2.27-.41-3.36-.67-2.12-.61-3.08-1L105,58.63c1,.32,2,.61,3,.86s2.06.48,3.12.67,2.09.29,3.12.39,2,.14,3,.14a15.23,15.23,0,0,0,3.51-.33,4,4,0,0,0,2-1.11,2.49,2.49,0,0,0,.67-1.77,2,2,0,0,0-.67-1.54,5.61,5.61,0,0,0-1.92-1.15,24.85,24.85,0,0,0-3.26-1.15L113,52.29a22.36,22.36,0,0,1-3.79-1.63,12.18,12.18,0,0,1-2.68-2.06,8.24,8.24,0,0,1-1.68-2.74,10.39,10.39,0,0,1-.53-3.46,9.7,9.7,0,0,1,.81-4,9,9,0,0,1,2.55-3.17,12.39,12.39,0,0,1,4.46-2.06,24.24,24.24,0,0,1,6.48-.77,39.59,39.59,0,0,1,4.37.24c1.47.16,2.83.37,4.08.62A28.6,28.6,0,0,1,130.28,34.1ZM165,66.5h-8.45l-4.47-21.07-4.7,21.07h-8.16L132.4,33l8.64-.1,2.74,25.78,4.9-23.86h7.2l4.65,23.81,2.74-25.73L172,33Zm19.58,0,10.66-33.74H205l10.8,33.74H206.9l-1.78-6.24H194.85l-1.77,6.24Zm11.76-12.91h7.3L200,39Zm20,.24a17.28,17.28,0,0,1,1.53-7.73,10.38,10.38,0,0,1,4.61-4.61,16,16,0,0,1,7.44-1.58c1,0,2.05.05,3.07.14s2.07.18,3,.34a17.11,17.11,0,0,1,2.59.53l-1.1,6.52c-.77-.16-1.54-.28-2.31-.38s-1.52-.18-2.25-.24-1.46-.1-2.16-.1a7.4,7.4,0,0,0-3.51.77,4.65,4.65,0,0,0-2.11,2.26,9.35,9.35,0,0,0-.67,3.84,8.57,8.57,0,0,0,.72,3.74,5.18,5.18,0,0,0,2.21,2.21,8,8,0,0,0,3.5.72c.77,0,1.52,0,2.25-.1s1.54-.16,2.31-.28,1.57-.28,2.4-.44l1.2,6.24a33.06,33.06,0,0,1-4.71.92,36.75,36.75,0,0,1-5.18.38q-6.44,0-9.65-3.22T216.34,53.83Zm24.37,5.52a7.81,7.81,0,0,1,.86-3.89A6.45,6.45,0,0,1,244.31,53a17.28,17.28,0,0,1,4.7-1.39,65.05,65.05,0,0,1,6.72-.82V49.22a2.25,2.25,0,0,0-1.2-2.11,7.17,7.17,0,0,0-3.46-.67c-.67,0-1.44,0-2.3.09s-1.76.18-2.69.34a24.79,24.79,0,0,0-2.78.67l-1.25-6.14a31.76,31.76,0,0,1,4.75-1.06,29.14,29.14,0,0,1,4.8-.43A18.46,18.46,0,0,1,258.42,41,7.24,7.24,0,0,1,262.26,44a9.66,9.66,0,0,1,1.25,5.08v9.12a2.64,2.64,0,0,0,.33,1.59,1.23,1.23,0,0,0,.87.38h.52a2.6,2.6,0,0,0,.58-.14l.62,5.61a8.79,8.79,0,0,1-2.16.92,8.3,8.3,0,0,1-2.59.38,6.76,6.76,0,0,1-3.31-.72A4.64,4.64,0,0,1,256.5,64,24.91,24.91,0,0,1,254,65.59a10.83,10.83,0,0,1-2.73,1A13,13,0,0,1,248,67a8.09,8.09,0,0,1-3-.53A7.33,7.33,0,0,1,242.67,65a7,7,0,0,1-1.48-2.4A9.81,9.81,0,0,1,240.71,59.35Zm7.92-.48a3.2,3.2,0,0,0,.67,2.25,2.31,2.31,0,0,0,1.77.72,5.63,5.63,0,0,0,1.59-.24,8.53,8.53,0,0,0,1.68-.67,7,7,0,0,0,1.39-1V55c-1.18.1-2.22.22-3.12.38a7.92,7.92,0,0,0-2.21.63,3,3,0,0,0-1.34,1.15A3.13,3.13,0,0,0,248.63,58.87Zm36.47,7.68-.92-2a17.13,17.13,0,0,1-3.84,1.82,13.73,13.73,0,0,1-4,.58,7.61,7.61,0,0,1-6.62-3.36q-2.31-3.36-2.31-9.7a19.56,19.56,0,0,1,1.35-7.82,9.66,9.66,0,0,1,4.17-4.66A14.56,14.56,0,0,1,280,39.91c.64,0,1.31,0,2,.09a17.44,17.44,0,0,1,2.11.24V31H292V66.55Zm-1-7.44v-13a11.14,11.14,0,0,0-1.87-.39,11.31,11.31,0,0,0-1.73-.14,5,5,0,0,0-2.79.72,4.23,4.23,0,0,0-1.63,2.35,15.13,15.13,0,0,0-.53,4.47,16.84,16.84,0,0,0,.44,4.22,4.94,4.94,0,0,0,1.34,2.35,3.19,3.19,0,0,0,2.11.72,7.81,7.81,0,0,0,1.44-.14,9.85,9.85,0,0,0,1.54-.43C283,59.65,283.51,59.4,284.09,59.11ZM308.28,67a18.6,18.6,0,0,1-5.43-.72,11,11,0,0,1-4-2.3,10.18,10.18,0,0,1-2.49-4,17.94,17.94,0,0,1-.87-5.9,19.74,19.74,0,0,1,1-6.58,11.71,11.71,0,0,1,2.74-4.36,10.24,10.24,0,0,1,4.17-2.4,16.89,16.89,0,0,1,5.24-.77q5.76,0,8.44,2.83T319.75,52c0,.32,0,.73-.05,1.24s0,1-.05,1.44l-2.92.24c-1.16.1-2.44.2-3.84.29s-2.9.18-4.47.24-3.17.11-4.8.15a.92.92,0,0,0-.05.28v.34a5.06,5.06,0,0,0,.63,2.64,4.25,4.25,0,0,0,2,1.54,10.68,10.68,0,0,0,3.51.48,28.31,28.31,0,0,0,2.83-.15c1-.09,2-.22,3-.38s2.05-.4,3.08-.63l.91,5.67c-1.12.35-2.27.65-3.46.91a26.87,26.87,0,0,1-3.69.53A41.09,41.09,0,0,1,308.28,67ZM303.67,50.9c.83,0,1.66,0,2.5,0l2.35-.09c.73-.07,1.39-.12,2-.15s1.05,0,1.44,0a9.61,9.61,0,0,0-.48-3,3.05,3.05,0,0,0-1.25-1.63,4,4,0,0,0-2.07-.48,5,5,0,0,0-1.58.24,3.45,3.45,0,0,0-1.34.86,4.92,4.92,0,0,0-1,1.68A10.82,10.82,0,0,0,303.67,50.9Zm19.61,15.6V40.39h7.11v2.25a16.89,16.89,0,0,1,2.78-1.53,15.36,15.36,0,0,1,2.64-.87A12.87,12.87,0,0,1,338.5,40a9.33,9.33,0,0,1,2.64.33,5.68,5.68,0,0,1,1.92,1,5,5,0,0,1,1.34,1.58,28.12,28.12,0,0,1,3-1.63,15.65,15.65,0,0,1,2.84-1,13.5,13.5,0,0,1,3-.33,8,8,0,0,1,2.55.38,5.52,5.52,0,0,1,2,1A6.06,6.06,0,0,1,360.05,45a10.15,10.15,0,0,1,.29,2.45V66.5h-7.88V50a5.83,5.83,0,0,0-.14-1.35,2.58,2.58,0,0,0-.48-1.1,1.76,1.76,0,0,0-.86-.72,3.3,3.3,0,0,0-1.35-.24,5.48,5.48,0,0,0-1.44.19,7.72,7.72,0,0,0-1.34.43,11.64,11.64,0,0,0-1.25.58,3.12,3.12,0,0,1,.1.82,6.45,6.45,0,0,1,0,.76V66.5h-7.87V50a5.57,5.57,0,0,0-.14-1.3,2.78,2.78,0,0,0-.48-1.1,2.09,2.09,0,0,0-.91-.72,2.84,2.84,0,0,0-1.35-.29,4.58,4.58,0,0,0-1.29.19,6.61,6.61,0,0,0-1.25.43c-.42.16-.85.36-1.3.58V66.5Zm46.07,10,3.22-10h-1.06l-9.6-26.06,8.59-.15L376,60.16l5.23-19.87,8.21.1L377.61,76.63Z" transform="translate(0 0)"/></g></g></g></svg>