<svg viewBox="0 0 2000 1000" xmlns="http://www.w3.org/2000/svg"><defs><filter id="b" x="-200%" y="-200%" width="500%" height="500%"><feGaussianBlur in="SourceGraphic" stdDeviation="20"/></filter></defs><path fill="#B1CFFF" d="M0 0h2000v1000H0z"/><ellipse cx="73.645" cy="38.249" rx="2.464" ry="2.407" fill="#fff" opacity=".056"/><ellipse cx="118.749" cy="12.709" rx="2.169" ry="1.989" fill="#fff" opacity=".087"/><ellipse cx="229.284" cy="26.823" rx="3.314" ry="3.269" fill="#fff" opacity="-.011"/><ellipse cx="278.268" cy="11.299" rx="3.805" ry="3.438" fill="#fff" opacity=".588"/><ellipse cx="335.198" cy="32.55" rx="2.119" ry="1.83" fill="#fff" opacity="-.195"/><ellipse cx="462.914" cy="39.138" rx="3.826" ry="3.545" fill="#fff" opacity="-.06"/><ellipse cx="548.695" cy="14.215" rx="2.981" ry="2.818" fill="#fff" opacity=".647"/><ellipse cx="628.927" cy="36.805" rx="2.39" ry="2.211" fill="#fff" opacity=".787"/><ellipse cx="665.383" cy="22.877" rx="2.555" ry="2.093" fill="#fff" opacity=".631"/><ellipse cx="734.564" cy="37.58" rx="2.373" ry="2.247" fill="#fff" opacity="-.096"/><ellipse cx="843.663" cy="5.3" rx="3.39" ry="3.363" fill="#fff" opacity=".406"/><ellipse cx="945.885" cy="3.49" rx="2.606" ry="2.505" fill="#fff" opacity=".103"/><ellipse cx="1034.585" cy="17.545" rx="3.124" ry="3.038" fill="#fff" opacity="-.208"/><ellipse cx="1042.292" cy="23.304" rx="3.582" ry="3.519" fill="#fff" opacity="-.219"/><ellipse cx="1183.347" cy="40.861" rx="2.987" ry="2.682" fill="#fff" opacity="-.032"/><ellipse cx="1216.281" cy="25.91" rx="2.67" ry="2.362" fill="#fff" opacity=".206"/><ellipse cx="1351.129" cy="19.225" rx="2.341" ry="2.322" fill="#fff" opacity=".452"/><ellipse cx="1431.73" cy="46.249" rx="3.41" ry="3.279" fill="#fff" opacity=".242"/><ellipse cx="1500.426" cy="14.302" rx="3.379" ry="3.015" fill="#fff" opacity="-.028"/><ellipse cx="1535.644" cy="16.771" rx="3.065" ry="2.579" fill="#fff" opacity=".059"/><ellipse cx="1652.655" cy="43.247" rx="3.041" ry="2.833" fill="#fff" opacity=".596"/><ellipse cx="1719.626" cy="15.459" rx="2.833" ry="2.52" fill="#fff" opacity=".924"/><ellipse cx="1786.195" cy="12.765" rx="2.618" ry="2.155" fill="#fff" opacity=".237"/><ellipse cx="1845.253" cy="19.854" rx="2.741" ry="2.459" fill="#fff" opacity=".402"/><ellipse cx="1938.069" cy="28.155" rx="3.076" ry="2.796" fill="#fff" opacity=".346"/><ellipse cx="54.328" cy="87.103" rx="3.644" ry="3.523" fill="#fff" opacity=".12"/><ellipse cx="80.269" cy="58.808" rx="3.79" ry="3.379" fill="#fff" opacity=".456"/><ellipse cx="189.798" cy="93.871" rx="2.72" ry="2.507" fill="#fff" opacity=".757"/><ellipse cx="281.565" cy="99.81" rx="3.786" ry="3.567" fill="#fff" opacity=".543"/><ellipse cx="347.224" cy="97.339" rx="3.503" ry="3.2" fill="#fff" opacity=".321"/><ellipse cx="410.654" cy="81.792" rx="3.02" ry="2.907" fill="#fff" opacity=".639"/><ellipse cx="495.082" cy="81.29" rx="2.671" ry="2.403" fill="#fff" opacity=".292"/><ellipse cx="568.595" cy="55.51" rx="3.668" ry="3.494" fill="#fff" opacity=".827"/><ellipse cx="645.003" cy="69.777" rx="3.239" ry="3.042" fill="#fff" opacity="-.082"/><ellipse cx="745.007" cy="51.275" rx="2.709" ry="2.569" fill="#fff" opacity=".557"/><ellipse cx="862.981" cy="79.475" rx="3.404" ry="3.223" fill="#fff" opacity=".567"/><ellipse cx="914.136" cy="94.435" rx="3.763" ry="3.46" fill="#fff" opacity=".14"/><ellipse cx="1012.13" cy="93.735" rx="1.974" ry="1.823" fill="#fff" opacity="-.215"/><ellipse cx="1096.75" cy="72.718" rx="3.542" ry="3.414" fill="#fff" opacity=".57"/><ellipse cx="1143.132" cy="92.526" rx="3.269" ry="3.258" fill="#fff" opacity=".123"/><ellipse cx="1269.9" cy="74.988" rx="2.632" ry="2.179" fill="#fff" opacity="-.102"/><ellipse cx="1349.881" cy="67.009" rx="2.1" ry="1.874" fill="#fff" opacity=".743"/><ellipse cx="1412.075" cy="67.448" rx="2.399" ry="2.103" fill="#fff" opacity=".825"/><ellipse cx="1440.224" cy="64.199" rx="3.126" ry="3.109" fill="#fff" opacity=".623"/><ellipse cx="1525.448" cy="87.23" rx="2.845" ry="2.603" fill="#fff" opacity="-.162"/><ellipse cx="1670.169" cy="75.494" rx="2.56" ry="2.184" fill="#fff" opacity=".661"/><ellipse cx="1725.239" cy="97.808" rx="3.293" ry="2.88" fill="#fff" opacity=".36"/><ellipse cx="1798.852" cy="66.907" rx="2.44" ry="2.103" fill="#fff" opacity=".039"/><ellipse cx="1858.169" cy="58.076" rx="3.047" ry="2.602" fill="#fff" opacity=".952"/><ellipse cx="1932.354" cy="96.353" rx="2.388" ry="2.309" fill="#fff" opacity=".064"/><ellipse cx="70.254" cy="135.046" rx="3.189" ry="3.112" fill="#fff" opacity=".245"/><ellipse cx="156.623" cy="139.037" rx="3.265" ry="3.045" fill="#fff" opacity=".058"/><ellipse cx="195.121" cy="120.129" rx="3.373" ry="2.89" fill="#fff" opacity=".442"/><ellipse cx="241.098" cy="137.694" rx="2.884" ry="2.797" fill="#fff" opacity=".818"/><ellipse cx="383.042" cy="142.132" rx="3.132" ry="3.043" fill="#fff" opacity=".41"/><ellipse cx="406.936" cy="142.355" rx="2.4" ry="2.085" fill="#fff" opacity=".83"/><ellipse cx="553.255" cy="134.456" rx="2.372" ry="2.067" fill="#fff" opacity=".589"/><ellipse cx="604.96" cy="105.41" rx="3.62" ry="3.384" fill="#fff" opacity=".28"/><ellipse cx="698.239" cy="130.15" rx="2.07" ry="1.993" fill="#fff" opacity=".126"/><ellipse cx="744.246" cy="109.788" rx="3.592" ry="3.552" fill="#fff" opacity=".494"/><ellipse cx="877.063" cy="101.884" rx="2.855" ry="2.56" fill="#fff" opacity=".058"/><ellipse cx="881.932" cy="125.924" rx="3.521" ry="3.365" fill="#fff" opacity=".317"/><ellipse cx="986.348" cy="105.269" rx="2.06" ry="2.038" fill="#fff" opacity=".656"/><ellipse cx="1063.814" cy="120.708" rx="2.043" ry="1.873" fill="#fff" opacity=".342"/><ellipse cx="1139.188" cy="114.98" rx="2.924" ry="2.484" fill="#fff" opacity=".644"/><ellipse cx="1249.419" cy="121.563" rx="3.639" ry="3.225" fill="#fff" opacity="-.062"/><ellipse cx="1297.899" cy="120.713" rx="3.744" ry="3.493" fill="#fff" opacity=".741"/><ellipse cx="1361.653" cy="149.855" rx="1.912" ry="1.883" fill="#fff" opacity=".526"/><circle cx="1490.724" cy="101.037" fill="#fff" opacity=".32" r="3.068"/><ellipse cx="1598.101" cy="107.314" rx="2.269" ry="1.895" fill="#fff" opacity=".601"/><ellipse cx="1649.448" cy="119.252" rx="2.86" ry="2.361" fill="#fff" opacity=".293"/><ellipse cx="1682.692" cy="108.038" rx="2.338" ry="1.905" fill="#fff" opacity=".336"/><ellipse cx="1807.84" cy="133.865" rx="3.04" ry="2.922" fill="#fff" opacity=".285"/><ellipse cx="1917.707" cy="113.096" rx="2.491" ry="2.294" fill="#fff" opacity=".465"/><ellipse cx="1988.007" cy="101.298" rx="3.068" ry="2.821" fill="#fff" opacity="-.003"/><ellipse cx="19.368" cy="154.542" rx="3.817" ry="3.475" fill="#fff" opacity=".698"/><ellipse cx="95.486" cy="150.758" rx="2.465" ry="2.342" fill="#fff" opacity="-.08"/><ellipse cx="164.979" cy="161.317" rx="3.427" ry="2.991" fill="#fff" opacity="-.046"/><ellipse cx="245.938" cy="163.68" rx="2.092" ry="1.999" fill="#fff" opacity=".695"/><ellipse cx="367.456" cy="150.003" rx="3.23" ry="3.037" fill="#fff" opacity=".785"/><ellipse cx="467.517" cy="189.193" rx="3.344" ry="2.947" fill="#fff" opacity=".203"/><ellipse cx="485.394" cy="186.456" rx="3.374" ry="3.094" fill="#fff" opacity=".6"/><ellipse cx="636.56" cy="194.066" rx="3.022" ry="2.892" fill="#fff" opacity="-.08"/><ellipse cx="694.925" cy="160.425" rx="2.867" ry="2.486" fill="#fff" opacity=".439"/><ellipse cx="772.157" cy="173.43" rx="3.494" ry="3.467" fill="#fff" opacity=".488"/><ellipse cx="840.719" cy="170.706" rx="3.163" ry="2.942" fill="#fff" opacity=".487"/><ellipse cx="938.373" cy="173.324" rx="3.138" ry="2.983" fill="#fff" opacity=".761"/><ellipse cx="1023.671" cy="181.769" rx="2.485" ry="2.052" fill="#fff" opacity=".337"/><ellipse cx="1065.965" cy="167.703" rx="2.764" ry="2.6" fill="#fff" opacity="-.167"/><ellipse cx="1169.404" cy="198.18" rx="2.922" ry="2.497" fill="#fff" opacity=".501"/><ellipse cx="1228.773" cy="180.235" rx="3.611" ry="3.179" fill="#fff" opacity=".467"/><ellipse cx="1292.026" cy="186.94" rx="2.549" ry="2.542" fill="#fff" opacity=".83"/><ellipse cx="1411.384" cy="173.142" rx="2.827" ry="2.414" fill="#fff" opacity=".528"/><ellipse cx="1480.441" cy="165.34" rx="2.318" ry="1.936" fill="#fff" opacity=".87"/><ellipse cx="1527.441" cy="193.941" rx="3.539" ry="3.47" fill="#fff" opacity="-.027"/><ellipse cx="1635.261" cy="198.792" rx="3.469" ry="3.367" fill="#fff" opacity=".01"/><ellipse cx="1749.837" cy="165.16" rx="3.267" ry="3.169" fill="#fff" opacity=".397"/><ellipse cx="1779.115" cy="195.878" rx="2.495" ry="2.384" fill="#fff" opacity=".744"/><ellipse cx="1894.246" cy="173.44" rx="2.177" ry="1.877" fill="#fff" opacity=".596"/><ellipse cx="1949.687" cy="179.573" rx="1.928" ry="1.889" fill="#fff" opacity=".488"/><ellipse cx="11.89" cy="202.625" rx="2.671" ry="2.318" fill="#fff" opacity=".564"/><ellipse cx="89.642" cy="204.587" rx="3.789" ry="3.419" fill="#fff" opacity=".364"/><ellipse cx="193.456" cy="203.38" rx="3.274" ry="3.185" fill="#fff" opacity=".669"/><ellipse cx="302.739" cy="208.361" rx="3.208" ry="3.191" fill="#fff" opacity=".481"/><ellipse cx="376.982" cy="239.919" rx="2.95" ry="2.591" fill="#fff" opacity=".157"/><ellipse cx="401.95" cy="230.402" rx="3.853" ry="3.473" fill="#fff" opacity=".341"/><ellipse cx="511.773" cy="207.013" rx="3.489" ry="3.04" fill="#fff" opacity=".305"/><ellipse cx="608.513" cy="201.207" rx="3.646" ry="3.408" fill="#fff" opacity=".82"/><ellipse cx="703.397" cy="220.947" rx="2.268" ry="1.867" fill="#fff" opacity=".684"/><ellipse cx="754.018" cy="222.297" rx="3.933" ry="3.47" fill="#fff" opacity=".045"/><ellipse cx="832.781" cy="233.047" rx="3.805" ry="3.557" fill="#fff" opacity="-.018"/><ellipse cx="934.056" cy="215.903" rx="1.951" ry="1.936" fill="#fff" opacity=".736"/><ellipse cx="1014.311" cy="228.647" rx="2.35" ry="1.888" fill="#fff" opacity=".485"/><ellipse cx="1065.488" cy="247.736" rx="3.302" ry="2.881" fill="#fff" opacity="-.254"/><ellipse cx="1199.589" cy="238.094" rx="2.933" ry="2.871" fill="#fff" opacity=".285"/><ellipse cx="1237.246" cy="208.655" rx="2.788" ry="2.568" fill="#fff" opacity=".652"/><ellipse cx="1325.978" cy="214.906" rx="3.82" ry="3.357" fill="#fff" opacity=".091"/><ellipse cx="1396.437" cy="218.051" rx="3.659" ry="3.193" fill="#fff" opacity="-.161"/><ellipse cx="1494.214" cy="207.962" rx="3.639" ry="3.533" fill="#fff" opacity=".405"/><ellipse cx="1555.14" cy="202.084" rx="3.996" ry="3.554" fill="#fff" opacity=".629"/><ellipse cx="1617.284" cy="205.388" rx="2.918" ry="2.596" fill="#fff" opacity=".792"/><ellipse cx="1712.026" cy="246.709" rx="3.037" ry="2.96" fill="#fff" opacity=".066"/><ellipse cx="1832.902" cy="226.203" rx="2.81" ry="2.491" fill="#fff" opacity=".378"/><ellipse cx="1878.308" cy="202.056" rx="2.641" ry="2.589" fill="#fff" opacity="-.061"/><ellipse cx="1955.442" cy="205.744" rx="2.509" ry="2.143" fill="#fff" opacity=".2"/><ellipse cx="25.256" cy="258.174" rx="2.836" ry="2.341" fill="#fff" opacity=".763"/><ellipse cx="118.455" cy="261.37" rx="2.297" ry="2.235" fill="#fff" opacity=".654"/><ellipse cx="220.564" cy="254.659" rx="3.081" ry="2.673" fill="#fff" opacity=".449"/><ellipse cx="286.637" cy="266.69" rx="3.526" ry="3.418" fill="#fff" opacity=".191"/><ellipse cx="353.823" cy="265.082" rx="2.943" ry="2.666" fill="#fff" opacity=".665"/><ellipse cx="429.938" cy="287.698" rx="3.199" ry="3.138" fill="#fff" opacity=".607"/><ellipse cx="538.116" cy="263.337" rx="3.29" ry="3.193" fill="#fff" opacity=".878"/><ellipse cx="604.651" cy="299.62" rx="3.205" ry="2.993" fill="#fff" opacity="-.063"/><ellipse cx="704.708" cy="287.545" rx="3.639" ry="3.44" fill="#fff" opacity=".03"/><ellipse cx="775.934" cy="260.011" rx="3.482" ry="3.358" fill="#fff" opacity=".668"/><ellipse cx="828.882" cy="265.328" rx="2.497" ry="2.373" fill="#fff" opacity=".445"/><ellipse cx="904.32" cy="279.939" rx="2.343" ry="2.306" fill="#fff" opacity=".051"/><ellipse cx="979.102" cy="275.759" rx="2.474" ry="2.325" fill="#fff" opacity=".071"/><ellipse cx="1114.356" cy="266.112" rx="3.182" ry="2.74" fill="#fff" opacity=".101"/><ellipse cx="1179.185" cy="269.847" rx="2.619" ry="2.327" fill="#fff" opacity=".474"/><ellipse cx="1239.47" cy="299.259" rx="2.17" ry="1.986" fill="#fff" opacity="-.158"/><ellipse cx="1283.501" cy="274.534" rx="3.707" ry="3.3" fill="#fff" opacity=".047"/><ellipse cx="1420.404" cy="268.268" rx="2.64" ry="2.615" fill="#fff" opacity=".075"/><ellipse cx="1463.24" cy="263.546" rx="2.616" ry="2.329" fill="#fff" opacity=".452"/><ellipse cx="1578.562" cy="277.517" rx="2.659" ry="2.495" fill="#fff" opacity=".827"/><ellipse cx="1638.491" cy="274.935" rx="2.455" ry="1.992" fill="#fff" opacity=".365"/><ellipse cx="1751.032" cy="257.198" rx="3.019" ry="2.91" fill="#fff" opacity=".193"/><ellipse cx="1790.191" cy="285.007" rx="2.899" ry="2.54" fill="#fff" opacity=".539"/><ellipse cx="1911.062" cy="286.997" rx="3.585" ry="3.475" fill="#fff" opacity=".167"/><ellipse cx="1953.958" cy="264.687" rx="2.154" ry="2.025" fill="#fff" opacity=".319"/><ellipse cx="31.528" cy="320.66" rx="3.702" ry="3.282" fill="#fff" opacity=".807"/><ellipse cx="145.587" cy="330.354" rx="2.597" ry="2.263" fill="#fff" opacity=".551"/><ellipse cx="212.515" cy="305.363" rx="3.148" ry="2.715" fill="#fff" opacity="-.065"/><ellipse cx="241.427" cy="303.851" rx="2.654" ry="2.412" fill="#fff" opacity=".605"/><ellipse cx="342.257" cy="335.195" rx="3.357" ry="2.905" fill="#fff" opacity=".345"/><ellipse cx="408.206" cy="349.277" rx="3.386" ry="3.308" fill="#fff" opacity=".215"/><ellipse cx="556.05" cy="343.162" rx="3.267" ry="2.898" fill="#fff" opacity="-.07"/><ellipse cx="637.16" cy="318.419" rx="2.457" ry="2.437" fill="#fff" opacity=".667"/><ellipse cx="712.705" cy="330.353" rx="2.374" ry="2.083" fill="#fff" opacity=".18"/><ellipse cx="739.263" cy="316.521" rx="3.909" ry="3.496" fill="#fff" opacity=".494"/><ellipse cx="813.83" cy="344.528" rx="2.99" ry="2.555" fill="#fff" opacity=".21"/><circle cx="925.226" cy="335.473" fill="#fff" opacity="-.002" r="2.967"/><ellipse cx="996.416" cy="320.27" rx="3.239" ry="3.211" fill="#fff" opacity="-.112"/><circle cx="1116.998" cy="344.266" fill="#fff" opacity=".597" r="2.844"/><ellipse cx="1265.267" cy="325.624" rx="3.609" ry="3.326" fill="#fff" opacity=".302"/><ellipse cx="1304.972" cy="302.125" rx="2.123" ry="1.982" fill="#fff" opacity=".631"/><ellipse cx="1410.721" cy="328.845" rx="2.986" ry="2.778" fill="#fff" opacity=".032"/><ellipse cx="1452.696" cy="302.199" rx="3.133" ry="2.793" fill="#fff" opacity=".306"/><ellipse cx="1523.614" cy="319.531" rx="2.758" ry="2.438" fill="#fff" opacity="-.085"/><ellipse cx="1626.708" cy="348.627" rx="1.897" ry="1.801" fill="#fff" opacity="-.165"/><ellipse cx="1680.291" cy="321.079" rx="2.543" ry="2.382" fill="#fff" opacity="-.178"/><ellipse cx="1762.914" cy="305.046" rx="3.247" ry="2.856" fill="#fff" opacity=".265"/><ellipse cx="1871.183" cy="318.337" rx="3.151" ry="2.746" fill="#fff" opacity=".578"/><ellipse cx="1948.423" cy="342.963" rx="2.636" ry="2.552" fill="#fff" opacity=".894"/><ellipse cx="14.359" cy="357.932" rx="2.716" ry="2.595" fill="#fff" opacity="-.156"/><ellipse cx="147.22" cy="378.641" rx="2.51" ry="2.046" fill="#fff" opacity=".043"/><ellipse cx="166.692" cy="372.701" rx="2.538" ry="2.416" fill="#fff" opacity=".609"/><ellipse cx="273.535" cy="397.268" rx="3.261" ry="2.944" fill="#fff" opacity=".802"/><ellipse cx="393.157" cy="390.2" rx="2.803" ry="2.336" fill="#fff" opacity=".226"/><ellipse cx="447.519" cy="376.309" rx="2.057" ry="2.03" fill="#fff" opacity=".297"/><ellipse cx="514.417" cy="373.55" rx="3.011" ry="2.68" fill="#fff" opacity=".301"/><ellipse cx="594.616" cy="365.945" rx="2.431" ry="2.385" fill="#fff" opacity=".234"/><ellipse cx="640.882" cy="376.727" rx="3.235" ry="2.831" fill="#fff" opacity=".901"/><ellipse cx="750.737" cy="353.43" rx="3.197" ry="2.959" fill="#fff" opacity=".134"/><ellipse cx="806.905" cy="391.167" rx="3.467" ry="3.149" fill="#fff" opacity=".72"/><ellipse cx="926.423" cy="362.138" rx="3.7" ry="3.532" fill="#fff" opacity=".622"/><ellipse cx="999.637" cy="363.006" rx="2.251" ry="2.083" fill="#fff" opacity=".395"/><ellipse cx="1098.285" cy="387.322" rx="3.672" ry="3.57" fill="#fff" opacity="-.068"/><ellipse cx="1193.636" cy="355.67" rx="3.622" ry="3.306" fill="#fff" opacity=".62"/><ellipse cx="1202.411" cy="381.187" rx="2.913" ry="2.823" fill="#fff" opacity=".642"/><ellipse cx="1349.731" cy="399.717" rx="2.304" ry="1.865" fill="#fff" opacity=".567"/><ellipse cx="1378.139" cy="355.679" rx="3.165" ry="2.836" fill="#fff" opacity=".442"/><ellipse cx="1506.585" cy="378.843" rx="2.573" ry="2.51" fill="#fff" opacity=".227"/><ellipse cx="1526.756" cy="395.596" rx="2.193" ry="1.812" fill="#fff" opacity=".318"/><ellipse cx="1675.167" cy="365.111" rx="2.838" ry="2.764" fill="#fff" opacity=".472"/><ellipse cx="1743.069" cy="363.65" rx="3.093" ry="2.816" fill="#fff" opacity=".378"/><ellipse cx="1812.307" cy="378.949" rx="3.123" ry="2.85" fill="#fff" opacity=".626"/><ellipse cx="1916.007" cy="364.799" rx="2.557" ry="2.45" fill="#fff" opacity=".598"/><ellipse cx="1930.789" cy="362.094" rx="2.665" ry="2.655" fill="#fff" opacity=".222"/><ellipse cx="59.394" cy="448.265" rx="3.913" ry="3.497" fill="#fff" opacity=".604"/><ellipse cx="97.522" cy="436.001" rx="3.409" ry="2.967" fill="#fff" opacity="-.106"/><ellipse cx="234.289" cy="435.639" rx="2.776" ry="2.491" fill="#fff" opacity=".224"/><ellipse cx="318.559" cy="446.553" rx="2.487" ry="2.327" fill="#fff" opacity=".697"/><ellipse cx="327.199" cy="440.85" rx="2.321" ry="2.135" fill="#fff" opacity=".64"/><ellipse cx="461.116" cy="438.695" rx="2.836" ry="2.463" fill="#fff" opacity=".287"/><ellipse cx="537.661" cy="433.401" rx="2.415" ry="2.269" fill="#fff" opacity=".136"/><ellipse cx="581.052" cy="425.806" rx="3.275" ry="2.778" fill="#fff" opacity="-.137"/><ellipse cx="705.896" cy="443.536" rx="3.285" ry="3.162" fill="#fff" opacity="-.023"/><ellipse cx="725.017" cy="411.854" rx="2.563" ry="2.488" fill="#fff" opacity=".306"/><ellipse cx="866.248" cy="407.464" rx="2.584" ry="2.366" fill="#fff" opacity=".163"/><ellipse cx="940.227" cy="408.602" rx="1.915" ry="1.883" fill="#fff" opacity="-.074"/><ellipse cx="999.051" cy="445.221" rx="2.253" ry="1.91" fill="#fff" opacity="-.137"/><ellipse cx="1098.866" cy="415.771" rx="2.894" ry="2.694" fill="#fff" opacity=".862"/><ellipse cx="1137.342" cy="438.502" rx="2.576" ry="2.104" fill="#fff" opacity=".714"/><ellipse cx="1240.877" cy="435.429" rx="3.51" ry="3.424" fill="#fff" opacity="-.095"/><ellipse cx="1291.056" cy="410.654" rx="1.997" ry="1.875" fill="#fff" opacity="-.064"/><ellipse cx="1370.213" cy="442.098" rx="3.295" ry="3.091" fill="#fff" opacity=".025"/><ellipse cx="1459.92" cy="432.803" rx="2.851" ry="2.697" fill="#fff" opacity="-.086"/><ellipse cx="1524.437" cy="433.307" rx="2.426" ry="1.935" fill="#fff" opacity=".055"/><ellipse cx="1679.58" cy="433.102" rx="3.544" ry="3.331" fill="#fff" opacity=".687"/><ellipse cx="1711.4" cy="441.537" rx="2.279" ry="2.049" fill="#fff" opacity=".216"/><ellipse cx="1807.518" cy="423.879" rx="2.499" ry="2.04" fill="#fff" opacity=".292"/><ellipse cx="1884.92" cy="434.347" rx="2.941" ry="2.936" fill="#fff" opacity=".104"/><ellipse cx="1936.773" cy="402.888" rx="2.269" ry="1.959" fill="#fff" opacity=".528"/><ellipse cx="4.446" cy="450.052" rx="3.159" ry="2.948" fill="#fff" opacity=".487"/><ellipse cx="105.108" cy="494.642" rx="2.99" ry="2.957" fill="#fff" opacity=".475"/><ellipse cx="220.081" cy="466.712" rx="3.343" ry="3.128" fill="#fff" opacity=".616"/><ellipse cx="289.342" cy="467.655" rx="3.607" ry="3.436" fill="#fff" opacity="-.107"/><ellipse cx="396.832" cy="452.004" rx="3.542" ry="3.164" fill="#fff" opacity=".21"/><ellipse cx="435.701" cy="490.853" rx="3.158" ry="2.675" fill="#fff" opacity=".609"/><ellipse cx="518.542" cy="468.124" rx="2.996" ry="2.679" fill="#fff" opacity=".748"/><ellipse cx="573.022" cy="494.228" rx="3.081" ry="2.6" fill="#fff" opacity=".587"/><ellipse cx="655.378" cy="490.032" rx="3.651" ry="3.169" fill="#fff" opacity=".863"/><ellipse cx="784.597" cy="475.6" rx="2.701" ry="2.24" fill="#fff" opacity=".514"/><ellipse cx="851.151" cy="469.249" rx="3.3" ry="3.091" fill="#fff" opacity=".577"/><ellipse cx="907.029" cy="497.977" rx="2.719" ry="2.544" fill="#fff" opacity=".552"/><ellipse cx="963.403" cy="493.705" rx="2.055" ry="1.824" fill="#fff" opacity=".217"/><ellipse cx="1071.992" cy="468.08" rx="2.456" ry="2.221" fill="#fff" opacity=".447"/><ellipse cx="1151.761" cy="472.838" rx="2.012" ry="1.825" fill="#fff" opacity="-.092"/><ellipse cx="1254.759" cy="462.653" rx="2.373" ry="2.112" fill="#fff" opacity=".899"/><ellipse cx="1339.384" cy="494.167" rx="3.568" ry="3.504" fill="#fff" opacity=".191"/><ellipse cx="1430.777" cy="482.961" rx="2.545" ry="2.129" fill="#fff" opacity=".348"/><ellipse cx="1454.685" cy="462.214" rx="3.522" ry="3.409" fill="#fff" opacity="-.039"/><ellipse cx="1520.296" cy="490.976" rx="2.851" ry="2.799" fill="#fff" opacity=".782"/><ellipse cx="1630.515" cy="476.019" rx="3.44" ry="2.983" fill="#fff" opacity=".856"/><ellipse cx="1724.426" cy="487.425" rx="2.747" ry="2.263" fill="#fff" opacity=".509"/><ellipse cx="1796.715" cy="471.643" rx="3.466" ry="3.24" fill="#fff" opacity=".735"/><ellipse cx="1869.688" cy="483.835" rx="2.617" ry="2.566" fill="#fff" opacity=".129"/><ellipse cx="1954.314" cy="454.617" rx="2.26" ry="2.225" fill="#fff" opacity=".168"/><ellipse cx="49.329" cy="521.941" rx="2.478" ry="2.045" fill="#fff" opacity=".577"/><ellipse cx="112.402" cy="537.296" rx="2.857" ry="2.483" fill="#fff" opacity="-.053"/><ellipse cx="166.016" cy="518.876" rx="2.179" ry="2.108" fill="#fff" opacity=".426"/><ellipse cx="314.053" cy="543.008" rx="2.833" ry="2.424" fill="#fff" opacity="-.074"/><ellipse cx="331.634" cy="547.341" rx="3.402" ry="3.176" fill="#fff" opacity=".51"/><ellipse cx="478.356" cy="528.825" rx="3.156" ry="2.931" fill="#fff" opacity=".269"/><ellipse cx="520.367" cy="545.845" rx="2.337" ry="2.06" fill="#fff" opacity=".126"/><ellipse cx="627.422" cy="540.904" rx="2.16" ry="1.845" fill="#fff" opacity=".559"/><ellipse cx="644.515" cy="536.423" rx="2.423" ry="2.311" fill="#fff" opacity=".571"/><ellipse cx="722.957" cy="507.524" rx="3.498" ry="3.081" fill="#fff" opacity=".597"/><ellipse cx="856.744" cy="513.572" rx="3.599" ry="3.557" fill="#fff" opacity=".435"/><ellipse cx="936.137" cy="524.267" rx="3.927" ry="3.469" fill="#fff" opacity=".042"/><ellipse cx="1011.996" cy="508.819" rx="3.611" ry="3.446" fill="#fff" opacity=".096"/><ellipse cx="1070.201" cy="503.554" rx="3.164" ry="2.692" fill="#fff" opacity=".738"/><ellipse cx="1164.464" cy="507.728" rx="3.396" ry="3.233" fill="#fff" opacity=".243"/><ellipse cx="1262.671" cy="500.79" rx="2.596" ry="2.237" fill="#fff" opacity=".175"/><ellipse cx="1295.364" cy="509.958" rx="3.003" ry="2.689" fill="#fff" opacity=".168"/><ellipse cx="1402.767" cy="533.009" rx="3.311" ry="3.251" fill="#fff" opacity=".044"/><ellipse cx="1464.047" cy="511.776" rx="2.384" ry="2.213" fill="#fff" opacity=".045"/><ellipse cx="1529.809" cy="541.132" rx="3.934" ry="3.541" fill="#fff" opacity=".418"/><ellipse cx="1635.53" cy="533.464" rx="2.955" ry="2.791" fill="#fff" opacity=".393"/><ellipse cx="1699.508" cy="515.596" rx="3.599" ry="3.401" fill="#fff" opacity=".193"/><ellipse cx="1804.82" cy="514.573" rx="3.541" ry="3.478" fill="#fff" opacity=".323"/><ellipse cx="1900.84" cy="536.288" rx="2.333" ry="1.867" fill="#fff" opacity=".241"/><ellipse cx="1982.093" cy="503.401" rx="3.135" ry="3.052" fill="#fff" opacity=".662"/><ellipse cx="43.23" cy="578.385" rx="2.874" ry="2.533" fill="#fff" opacity="-.079"/><ellipse cx="118.127" cy="599.006" rx="2.591" ry="2.556" fill="#fff" opacity=".113"/><ellipse cx="162.403" cy="587.201" rx="2.276" ry="2.224" fill="#fff" opacity=".547"/><ellipse cx="293.486" cy="587.078" rx="2.871" ry="2.505" fill="#fff" opacity=".909"/><ellipse cx="326.697" cy="557.975" rx="2.89" ry="2.59" fill="#fff" opacity=".085"/><ellipse cx="411.437" cy="573.331" rx="4.003" ry="3.569" fill="#fff" opacity=".293"/><ellipse cx="558.019" cy="585.224" rx="3.589" ry="3.229" fill="#fff" opacity=".175"/><ellipse cx="623.774" cy="554.544" rx="2.993" ry="2.976" fill="#fff" opacity=".23"/><ellipse cx="715.978" cy="589.352" rx="2.311" ry="2.268" fill="#fff" opacity=".54"/><ellipse cx="720.923" cy="578.026" rx="2.726" ry="2.412" fill="#fff" opacity="-.203"/><ellipse cx="828.325" cy="554.94" rx="2.918" ry="2.5" fill="#fff" opacity=".101"/><ellipse cx="937.703" cy="563.406" rx="2.657" ry="2.319" fill="#fff" opacity=".235"/><ellipse cx="1029.18" cy="567.628" rx="3.661" ry="3.453" fill="#fff" opacity=".022"/><ellipse cx="1109.307" cy="586.669" rx="3.3" ry="3.288" fill="#fff" opacity=".671"/><ellipse cx="1165.892" cy="570.253" rx="2.539" ry="2.133" fill="#fff" opacity=".162"/><ellipse cx="1269.081" cy="557.724" rx="3.439" ry="3.393" fill="#fff" opacity=".567"/><ellipse cx="1335.72" cy="599.126" rx="2.244" ry="2.222" fill="#fff" opacity=".754"/><ellipse cx="1394.045" cy="577.786" rx="3.089" ry="2.835" fill="#fff" opacity="-.028"/><ellipse cx="1495.517" cy="571.907" rx="2.94" ry="2.781" fill="#fff" opacity="-.187"/><ellipse cx="1523.078" cy="583.027" rx="2.394" ry="1.931" fill="#fff" opacity=".404"/><ellipse cx="1662.428" cy="595.721" rx="2.374" ry="2.322" fill="#fff" opacity=".552"/><ellipse cx="1731.786" cy="553.259" rx="2.762" ry="2.458" fill="#fff" opacity=".115"/><ellipse cx="1834.654" cy="575.194" rx="3.068" ry="2.753" fill="#fff" opacity=".148"/><ellipse cx="1904.966" cy="556.295" rx="3.483" ry="3.34" fill="#fff" opacity=".055"/><ellipse cx="1996.934" cy="592.949" rx="2.629" ry="2.305" fill="#fff" opacity=".056"/><ellipse cx="44.611" cy="619.743" rx="3.386" ry="3.302" fill="#fff" opacity=".236"/><ellipse cx="114.906" cy="629.774" rx="3.512" ry="3.169" fill="#fff" opacity="-.054"/><ellipse cx="178.141" cy="635.546" rx="2.261" ry="1.982" fill="#fff" opacity=".353"/><ellipse cx="274.59" cy="640.98" rx="2.475" ry="2.369" fill="#fff" opacity=".166"/><ellipse cx="362.474" cy="649.2" rx="1.972" ry="1.841" fill="#fff" opacity="-.139"/><ellipse cx="474.491" cy="619.854" rx="3.225" ry="2.748" fill="#fff" opacity="-.078"/><ellipse cx="482.614" cy="623.116" rx="2.37" ry="2.13" fill="#fff" opacity=".063"/><ellipse cx="621.393" cy="643.313" rx="2.539" ry="2.258" fill="#fff" opacity=".699"/><ellipse cx="696.03" cy="602.621" rx="2.634" ry="2.496" fill="#fff" opacity=".493"/><ellipse cx="738.46" cy="602.357" rx="3.277" ry="3.074" fill="#fff" opacity=".381"/><ellipse cx="855.691" cy="600.906" rx="2.263" ry="2.255" fill="#fff" opacity=".419"/><ellipse cx="941.877" cy="634.042" rx="2.787" ry="2.723" fill="#fff" opacity=".53"/><ellipse cx="995.828" cy="638.488" rx="2.795" ry="2.654" fill="#fff" opacity=".488"/><ellipse cx="1099.359" cy="615.634" rx="2.96" ry="2.939" fill="#fff" opacity=".222"/><ellipse cx="1199.14" cy="607.431" rx="1.855" ry="1.792" fill="#fff" opacity=".03"/><ellipse cx="1207.079" cy="623.028" rx="1.866" ry="1.797" fill="#fff" opacity=".969"/><ellipse cx="1305.403" cy="622.465" rx="3.885" ry="3.432" fill="#fff" opacity="-.16"/><ellipse cx="1367.5" cy="643.604" rx="3.549" ry="3.415" fill="#fff" opacity=".961"/><ellipse cx="1506.776" cy="620.254" rx="2.862" ry="2.684" fill="#fff" opacity=".08"/><ellipse cx="1529.438" cy="614.172" rx="3.714" ry="3.41" fill="#fff" opacity=".201"/><ellipse cx="1652.894" cy="600.502" rx="3.161" ry="2.957" fill="#fff" opacity=".66"/><ellipse cx="1710.507" cy="624.684" rx="2.986" ry="2.925" fill="#fff" opacity=".223"/><ellipse cx="1801.684" cy="629.368" rx="3.482" ry="3.048" fill="#fff" opacity=".393"/><ellipse cx="1913.792" cy="627.583" rx="2.472" ry="2.344" fill="#fff" opacity="-.042"/><ellipse cx="1936.475" cy="632.09" rx="3.264" ry="2.972" fill="#fff" opacity=".007"/><ellipse cx="43.594" cy="698.165" rx="1.91" ry="1.864" fill="#fff" opacity=".697"/><ellipse cx="102.158" cy="696.663" rx="3.693" ry="3.451" fill="#fff" opacity=".361"/><ellipse cx="182.448" cy="660.139" rx="3.743" ry="3.549" fill="#fff" opacity=".663"/><ellipse cx="266.714" cy="650.241" rx="2.445" ry="2.42" fill="#fff" opacity=".305"/><ellipse cx="368.221" cy="690.331" rx="3.292" ry="3.284" fill="#fff" opacity=".446"/><ellipse cx="420.188" cy="653.13" rx="2.961" ry="2.603" fill="#fff" opacity=".455"/><ellipse cx="541.694" cy="692.316" rx="3.366" ry="3.349" fill="#fff" opacity=".176"/><ellipse cx="606.215" cy="692.643" rx="3.981" ry="3.498" fill="#fff" opacity=".256"/><ellipse cx="672.06" cy="692.571" rx="3.762" ry="3.52" fill="#fff" opacity=".583"/><ellipse cx="724.665" cy="680.748" rx="3.783" ry="3.318" fill="#fff" opacity=".352"/><ellipse cx="865.778" cy="661.722" rx="3.017" ry="2.679" fill="#fff" opacity=".107"/><ellipse cx="890.384" cy="650.08" rx="3.541" ry="3.076" fill="#fff" opacity=".052"/><ellipse cx="992.634" cy="661.85" rx="3.31" ry="3.066" fill="#fff" opacity=".832"/><ellipse cx="1072.881" cy="661.473" rx="2.91" ry="2.563" fill="#fff" opacity=".12"/><ellipse cx="1137.114" cy="695.344" rx="3.542" ry="3.475" fill="#fff" opacity=".357"/><ellipse cx="1247.535" cy="690.168" rx="2.3" ry="2.263" fill="#fff" opacity="-.201"/><ellipse cx="1309.58" cy="653.006" rx="2.426" ry="2.052" fill="#fff" opacity="-.064"/><ellipse cx="1407.23" cy="660.4" rx="2.965" ry="2.564" fill="#fff" opacity=".589"/><ellipse cx="1504.404" cy="661.267" rx="2.763" ry="2.761" fill="#fff" opacity=".71"/><ellipse cx="1574.386" cy="674.296" rx="3.235" ry="2.872" fill="#fff" opacity=".552"/><ellipse cx="1647.172" cy="687.537" rx="3.967" ry="3.469" fill="#fff" opacity=".39"/><ellipse cx="1739.657" cy="683.08" rx="2.246" ry="1.897" fill="#fff" opacity=".057"/><ellipse cx="1793.52" cy="656.173" rx="3.003" ry="2.816" fill="#fff" opacity=".122"/><ellipse cx="1917.377" cy="653.804" rx="2.378" ry="2.271" fill="#fff" opacity=".528"/><ellipse cx="1924.776" cy="696.898" rx="2.424" ry="2.41" fill="#fff" opacity=".646"/><ellipse cx="65.922" cy="716.828" rx="2.212" ry="2.042" fill="#fff" opacity=".038"/><ellipse cx="92.572" cy="740.536" rx="2.224" ry="2.18" fill="#fff" opacity=".704"/><ellipse cx="165.885" cy="725.411" rx="3.01" ry="2.814" fill="#fff" opacity=".375"/><ellipse cx="271.934" cy="743.907" rx="2.304" ry="2.237" fill="#fff" opacity=".185"/><ellipse cx="361.638" cy="710.855" rx="3.32" ry="2.973" fill="#fff" opacity=".259"/><ellipse cx="463.945" cy="721.711" rx="2.914" ry="2.674" fill="#fff" opacity=".467"/><ellipse cx="551.479" cy="719.954" rx="3.078" ry="3.01" fill="#fff" opacity=".129"/><ellipse cx="598.488" cy="700.827" rx="3.533" ry="3.391" fill="#fff" opacity=".901"/><ellipse cx="715.049" cy="720.144" rx="2.701" ry="2.421" fill="#fff" opacity=".663"/><ellipse cx="760.439" cy="727.245" rx="2.226" ry="1.822" fill="#fff" opacity=".53"/><ellipse cx="826.991" cy="705.443" rx="3.132" ry="2.771" fill="#fff" opacity=".2"/><ellipse cx="907.133" cy="746.099" rx="3.156" ry="2.728" fill="#fff" opacity="-.082"/><ellipse cx="1019.39" cy="700.661" rx="2.788" ry="2.766" fill="#fff" opacity=".044"/><ellipse cx="1051.115" cy="725.568" rx="3.443" ry="3.118" fill="#fff" opacity="-.016"/><ellipse cx="1128.855" cy="711.997" rx="2.032" ry="1.864" fill="#fff" opacity=".652"/><ellipse cx="1235.873" cy="720.024" rx="2.952" ry="2.683" fill="#fff" opacity=".406"/><ellipse cx="1310.388" cy="701.511" rx="2.539" ry="2.227" fill="#fff" opacity=".224"/><ellipse cx="1425.65" cy="749.871" rx="3.123" ry="2.721" fill="#fff" opacity=".117"/><ellipse cx="1514.232" cy="748.717" rx="3.228" ry="2.809" fill="#fff" opacity="-.063"/><ellipse cx="1526.715" cy="709.846" rx="2.29" ry="2.045" fill="#fff" opacity=".724"/><ellipse cx="1660.129" cy="712.59" rx="3.155" ry="2.809" fill="#fff" opacity=".497"/><ellipse cx="1692.795" cy="742.466" rx="3.18" ry="2.939" fill="#fff" opacity=".356"/><ellipse cx="1825.547" cy="731.93" rx="3.38" ry="3.149" fill="#fff" opacity=".52"/><ellipse cx="1865.908" cy="720.587" rx="3.483" ry="3.064" fill="#fff" opacity=".136"/><ellipse cx="1964.595" cy="719.369" rx="3.518" ry="3.428" fill="#fff" opacity=".295"/><ellipse cx="3.492" cy="771.386" rx="2.26" ry="2.032" fill="#fff" opacity=".517"/><ellipse cx="142.989" cy="773.855" rx="2.382" ry="2.246" fill="#fff" opacity="-.126"/><ellipse cx="190.571" cy="767.17" rx="2.991" ry="2.584" fill="#fff" opacity=".634"/><ellipse cx="265.992" cy="759.127" rx="3.254" ry="3.165" fill="#fff" opacity=".403"/><ellipse cx="399.775" cy="796.173" rx="3.226" ry="3.005" fill="#fff" opacity="-.224"/><circle cx="414.431" cy="775.083" fill="#fff" opacity=".049" r="3.53"/><ellipse cx="528.93" cy="773.946" rx="2.063" ry="2.015" fill="#fff" opacity="-.194"/><ellipse cx="630.189" cy="751.4" rx="1.974" ry="1.966" fill="#fff" opacity=".27"/><ellipse cx="680.235" cy="767.499" rx="2.538" ry="2.398" fill="#fff" opacity=".597"/><ellipse cx="746.006" cy="798.206" rx="3.17" ry="3.154" fill="#fff" opacity=".251"/><ellipse cx="822.247" cy="785.905" rx="2.221" ry="2.129" fill="#fff" opacity=".606"/><ellipse cx="882.576" cy="755.365" rx="2.563" ry="2.12" fill="#fff" opacity=".86"/><ellipse cx="973.838" cy="758.864" rx="3.143" ry="2.748" fill="#fff" opacity=".548"/><ellipse cx="1059.171" cy="776.64" rx="3.434" ry="3.132" fill="#fff" opacity=".713"/><ellipse cx="1172.39" cy="796.06" rx="2.573" ry="2.127" fill="#fff" opacity=".595"/><ellipse cx="1205.842" cy="785.068" rx="2.744" ry="2.263" fill="#fff" opacity=".203"/><ellipse cx="1353.563" cy="786.372" rx="3.103" ry="2.605" fill="#fff" opacity="-.133"/><ellipse cx="1417.399" cy="773.986" rx="2.771" ry="2.468" fill="#fff" opacity="-.005"/><ellipse cx="1442.357" cy="796.349" rx="2.539" ry="2.286" fill="#fff" opacity="-.045"/><ellipse cx="1555.233" cy="798.731" rx="2.11" ry="2.084" fill="#fff" opacity="-.029"/><ellipse cx="1608.093" cy="765.159" rx="3.085" ry="3.017" fill="#fff" opacity=".089"/><ellipse cx="1713.317" cy="772.862" rx="2.418" ry="2.316" fill="#fff" opacity=".227"/><ellipse cx="1779.651" cy="794.675" rx="2.461" ry="2.011" fill="#fff" opacity=".441"/><ellipse cx="1875.304" cy="775.978" rx="3.221" ry="3.197" fill="#fff" opacity=".687"/><ellipse cx="1947.974" cy="777.899" rx="2.232" ry="2.016" fill="#fff" opacity=".401"/><ellipse cx="38.313" cy="821.902" rx="3.082" ry="2.778" fill="#fff" opacity=".403"/><ellipse cx="101.204" cy="839.344" rx="2.999" ry="2.846" fill="#fff" opacity=".558"/><ellipse cx="234.644" cy="815.649" rx="2.423" ry="2.399" fill="#fff" opacity=".439"/><ellipse cx="309.197" cy="804.498" rx="3.265" ry="3.059" fill="#fff" opacity=".305"/><ellipse cx="375.554" cy="836.485" rx="3.603" ry="3.427" fill="#fff" opacity="-.12"/><ellipse cx="401.751" cy="818.952" rx="2.434" ry="2.226" fill="#fff" opacity=".129"/><ellipse cx="552.987" cy="804.011" rx="2.53" ry="2.465" fill="#fff" opacity=".474"/><ellipse cx="617.579" cy="822.996" rx="2.474" ry="2.321" fill="#fff" opacity=".515"/><ellipse cx="641.985" cy="814.484" rx="3.092" ry="3.016" fill="#fff" opacity=".031"/><ellipse cx="767.9" cy="837.063" rx="2.254" ry="1.936" fill="#fff" opacity=".403"/><ellipse cx="840.412" cy="845.826" rx="3.476" ry="2.984" fill="#fff" opacity=".577"/><ellipse cx="897.58" cy="821.41" rx="3.003" ry="2.788" fill="#fff" opacity=".224"/><ellipse cx="996.491" cy="826.046" rx="2.452" ry="2.042" fill="#fff" opacity=".38"/><ellipse cx="1067.303" cy="838.953" rx="2.612" ry="2.482" fill="#fff" opacity=".381"/><ellipse cx="1159.176" cy="832.857" rx="2.541" ry="2.332" fill="#fff" opacity="-.049"/><ellipse cx="1213.07" cy="826.57" rx="2.511" ry="2.371" fill="#fff" opacity=".857"/><ellipse cx="1332.961" cy="809.922" rx="2.498" ry="2.277" fill="#fff" opacity=".237"/><ellipse cx="1364.456" cy="842.909" rx="2.299" ry="2.136" fill="#fff" opacity=".376"/><ellipse cx="1456.196" cy="830.344" rx="3.336" ry="3.248" fill="#fff" opacity="-.147"/><ellipse cx="1536.585" cy="806.343" rx="2.407" ry="2.175" fill="#fff" opacity=".642"/><ellipse cx="1638.783" cy="837.044" rx="2.256" ry="2.189" fill="#fff" opacity=".108"/><ellipse cx="1726.778" cy="844.176" rx="3.438" ry="3.411" fill="#fff" opacity=".589"/><ellipse cx="1831.324" cy="839.262" rx="2.86" ry="2.582" fill="#fff" opacity=".477"/><ellipse cx="1865.692" cy="836.225" rx="3.265" ry="2.878" fill="#fff" opacity=".683"/><ellipse cx="1994.705" cy="823.166" rx="3.201" ry="3.073" fill="#fff" opacity=".289"/><ellipse cx="43.064" cy="861.149" rx="3.273" ry="3.269" fill="#fff" opacity=".655"/><ellipse cx="140.715" cy="878.762" rx="2.159" ry="1.834" fill="#fff" opacity=".125"/><ellipse cx="232.234" cy="895.78" rx="3.843" ry="3.522" fill="#fff" opacity=".554"/><ellipse cx="306.566" cy="883.157" rx="3.054" ry="2.841" fill="#fff" opacity=".367"/><ellipse cx="326.2" cy="882.596" rx="3.39" ry="3.126" fill="#fff" opacity="-.061"/><ellipse cx="444.613" cy="878.428" rx="2.715" ry="2.669" fill="#fff" opacity=".483"/><ellipse cx="521.339" cy="854.773" rx="3.39" ry="3.1" fill="#fff" opacity=".625"/><ellipse cx="593.574" cy="895.848" rx="2.201" ry="1.834" fill="#fff" opacity=".664"/><ellipse cx="686.685" cy="862.564" rx="2.241" ry="1.904" fill="#fff" opacity=".656"/><ellipse cx="762.65" cy="859.649" rx="3.125" ry="3.098" fill="#fff" opacity=".711"/><ellipse cx="819.861" cy="863.438" rx="2.38" ry="2.307" fill="#fff" opacity=".286"/><ellipse cx="889.427" cy="869.048" rx="2.168" ry="1.792" fill="#fff" opacity=".621"/><ellipse cx="961.67" cy="851.068" rx="2.416" ry="2.252" fill="#fff" opacity=".492"/><ellipse cx="1062.851" cy="896.429" rx="3.068" ry="2.67" fill="#fff" opacity="-.052"/><ellipse cx="1170.298" cy="882.009" rx="2.991" ry="2.504" fill="#fff" opacity=".205"/><ellipse cx="1248.622" cy="892.61" rx="2.244" ry="1.865" fill="#fff" opacity=".056"/><ellipse cx="1307.928" cy="895.872" rx="2.198" ry="2.113" fill="#fff" opacity=".111"/><ellipse cx="1377.98" cy="867.625" rx="2.674" ry="2.226" fill="#fff" opacity=".441"/><ellipse cx="1462.931" cy="856.485" rx="2.83" ry="2.575" fill="#fff" opacity=".328"/><ellipse cx="1520.953" cy="878.839" rx="3.169" ry="3.165" fill="#fff" opacity=".475"/><ellipse cx="1631.855" cy="863.38" rx="3.152" ry="3.053" fill="#fff" opacity="-.135"/><ellipse cx="1744.497" cy="861.843" rx="2.983" ry="2.633" fill="#fff" opacity=".361"/><ellipse cx="1787.044" cy="852.565" rx="2.616" ry="2.127" fill="#fff" opacity="-.004"/><ellipse cx="1897.256" cy="885.867" rx="2.543" ry="2.449" fill="#fff" opacity=".149"/><ellipse cx="1974.759" cy="856.009" rx="3.724" ry="3.543" fill="#fff" opacity=".268"/><ellipse cx="39.579" cy="918.036" rx="3.464" ry="3.402" fill="#fff" opacity=".324"/><ellipse cx="123.072" cy="930.413" rx="2.466" ry="2.172" fill="#fff" opacity="-.037"/><ellipse cx="173.322" cy="918.665" rx="2.714" ry="2.535" fill="#fff" opacity=".689"/><ellipse cx="289.089" cy="948.352" rx="3.918" ry="3.476" fill="#fff" opacity="-.032"/><ellipse cx="347.249" cy="934.225" rx="3.262" ry="2.939" fill="#fff" opacity=".757"/><ellipse cx="462.949" cy="938.238" rx="3.627" ry="3.431" fill="#fff" opacity=".412"/><ellipse cx="511.568" cy="928.281" rx="3.381" ry="2.969" fill="#fff" opacity=".14"/><ellipse cx="572.849" cy="934.39" rx="2.999" ry="2.742" fill="#fff" opacity=".442"/><ellipse cx="654.407" cy="947.11" rx="2.158" ry="1.819" fill="#fff" opacity=".158"/><ellipse cx="786.377" cy="915.64" rx="3.381" ry="2.947" fill="#fff" opacity=".246"/><ellipse cx="852.258" cy="926.929" rx="3.112" ry="2.667" fill="#fff" opacity=".103"/><ellipse cx="934.957" cy="920.094" rx="2.36" ry="1.865" fill="#fff" opacity=".668"/><ellipse cx="991.104" cy="919.304" rx="3.036" ry="2.702" fill="#fff" opacity=".628"/><ellipse cx="1094.402" cy="943.279" rx="3.634" ry="3.562" fill="#fff" opacity="-.065"/><ellipse cx="1122.991" cy="931.818" rx="2.481" ry="2.183" fill="#fff" opacity=".177"/><ellipse cx="1213.783" cy="907.091" rx="2.117" ry="2.055" fill="#fff" opacity=".303"/><ellipse cx="1294.381" cy="927.294" rx="3.009" ry="2.537" fill="#fff" opacity="-.068"/><ellipse cx="1438.473" cy="914.746" rx="2.279" ry="2.093" fill="#fff" opacity=".651"/><ellipse cx="1493.431" cy="924.422" rx="3.766" ry="3.571" fill="#fff" opacity="-.16"/><ellipse cx="1563.742" cy="902.921" rx="3.505" ry="3.32" fill="#fff" opacity=".592"/><ellipse cx="1667.734" cy="935.832" rx="2.285" ry="2.104" fill="#fff" opacity=".15"/><ellipse cx="1758.156" cy="918.486" rx="3.036" ry="2.63" fill="#fff" opacity=".672"/><ellipse cx="1768.536" cy="921.534" rx="3.452" ry="3.417" fill="#fff" opacity=".514"/><ellipse cx="1915.576" cy="901.99" rx="2.632" ry="2.285" fill="#fff" opacity=".591"/><ellipse cx="1929.832" cy="942.315" rx="3.589" ry="3.104" fill="#fff" opacity=".276"/><ellipse cx="45.375" cy="955.894" rx="2.647" ry="2.295" fill="#fff" opacity=".075"/><ellipse cx="155.748" cy="972.9" rx="3.069" ry="2.848" fill="#fff" opacity=".606"/><ellipse cx="212.648" cy="985.673" rx="3.289" ry="3.036" fill="#fff" opacity=".694"/><ellipse cx="248.821" cy="962.143" rx="2.225" ry="1.85" fill="#fff" opacity=".195"/><ellipse cx="337.453" cy="972.775" rx="2.279" ry="1.799" fill="#fff" opacity=".067"/><ellipse cx="437.472" cy="998.287" rx="3.185" ry="2.814" fill="#fff" opacity=".813"/><ellipse cx="537.858" cy="976.909" rx="2.379" ry="2.333" fill="#fff" opacity=".058"/><ellipse cx="573.071" cy="976.075" rx="3.064" ry="2.997" fill="#fff" opacity=".902"/><ellipse cx="713.311" cy="991.859" rx="2.732" ry="2.696" fill="#fff" opacity=".337"/><ellipse cx="760.328" cy="950.589" rx="3.256" ry="2.814" fill="#fff" opacity=".039"/><ellipse cx="856.083" cy="984.48" rx="3.381" ry="3.172" fill="#fff" opacity=".445"/><ellipse cx="906.775" cy="972.051" rx="2.246" ry="1.873" fill="#fff" opacity=".059"/><ellipse cx="1031.301" cy="962.869" rx="2.294" ry="1.86" fill="#fff" opacity=".758"/><ellipse cx="1055.773" cy="961.472" rx="3.503" ry="3.402" fill="#fff" opacity=".309"/><ellipse cx="1153.748" cy="977.351" rx="3.563" ry="3.557" fill="#fff" opacity=".471"/><ellipse cx="1247.504" cy="952.247" rx="2.629" ry="2.277" fill="#fff" opacity=".596"/><ellipse cx="1350.154" cy="989.405" rx="3.32" ry="3.228" fill="#fff" opacity="-.066"/><ellipse cx="1374.337" cy="998.967" rx="2.567" ry="2.173" fill="#fff" opacity=".071"/><ellipse cx="1443.637" cy="979.384" rx="2.584" ry="2.359" fill="#fff" opacity=".675"/><ellipse cx="1577.16" cy="981.283" rx="3.476" ry="3.132" fill="#fff" opacity=".497"/><ellipse cx="1601.421" cy="964.514" rx="3.009" ry="2.949" fill="#fff" opacity=".341"/><ellipse cx="1686.519" cy="957.188" rx="2.67" ry="2.487" fill="#fff" opacity="-.081"/><ellipse cx="1839.073" cy="981.476" rx="3.203" ry="2.988" fill="#fff" opacity=".565"/><ellipse cx="1854.674" cy="975.27" rx="2.44" ry="2.12" fill="#fff" opacity=".213"/><ellipse cx="1924.582" cy="968.476" rx="2.183" ry="1.827" fill="#fff" opacity=".652"/><g transform="rotate(-57.754 257.707 -145.05)"><defs><linearGradient id="a" x1="0" y1="1" x2="256.738" y2="1" gradientUnits="userSpaceOnUse"><stop stop-color="#fff"/><stop offset=".3" stop-color="#fff" stop-opacity=".1"/><stop offset=".7" stop-color="#fff" stop-opacity="0"/></linearGradient></defs><rect x="-12.837" y="-14.8" width="102.695" height="29.6" rx="29.6" ry="29.6" fill="url(#a)" filter="url(#b)" opacity=".4"/><rect width="154.043" height="10.3" rx="10.3" ry="10.3" fill="url(#a)"/></g><g transform="rotate(-61.953 523.8 -277.591)" fill="url(#a)"><rect x="-10.308" y="-14.8" width="82.46" height="29.6" rx="29.6" ry="29.6" filter="url(#b)" opacity=".4"/><rect width="123.691" height="10.3" rx="10.3" ry="10.3"/></g><g transform="rotate(-62.563 1229.58 -1191.36)" fill="url(#a)"><rect x="-10.663" y="-14.8" width="85.306" height="29.6" rx="29.6" ry="29.6" filter="url(#b)" opacity=".4"/><rect width="127.959" height="10.3" rx="10.3" ry="10.3"/></g><g transform="rotate(-62.911 1022.112 -532.991)" fill="url(#a)"><rect x="-12.539" y="-14.8" width="100.313" height="29.6" rx="29.6" ry="29.6" filter="url(#b)" opacity=".4"/><rect width="150.469" height="10.3" rx="10.3" ry="10.3"/></g><g transform="rotate(-59.056 1199.156 -191.637)" fill="url(#a)"><rect x="-9.017" y="-14.8" width="72.136" height="29.6" rx="29.6" ry="29.6" filter="url(#b)" opacity=".4"/><rect width="108.204" height="10.3" rx="10.3" ry="10.3"/></g></svg>